M48
INCH
T01C0.0138
T02C0.0354
T03C0.0394
T04C0.0512
T05C0.0551
T06C0.1575
%
T01
X+019894Y+004063
X+019206Y+004375
X+018081Y+014875
X+018019Y+015687
X+017644Y+016187
X+017394Y+016813
X+017019Y+017375
T02
X+019769Y+050877
X+019769Y+049877
X+019769Y+048877
X+019769Y+047877
X+019769Y+046877
X+019769Y+045877
X+019769Y+044877
X+019769Y+043877
X+022769Y+043877
X+022769Y+044877
X+022769Y+045877
X+022769Y+046877
X+022769Y+047877
X+022769Y+048877
X+022769Y+049877
X+022769Y+050877
X+022769Y+032500
X+022769Y+031500
X+022769Y+030500
X+022769Y+029500
X+022769Y+028500
X+022769Y+027500
X+022769Y+026500
X+022769Y+025500
X+019769Y+025500
X+019769Y+026500
X+019769Y+027500
X+019769Y+028500
X+019769Y+029500
X+019769Y+030500
X+019769Y+031500
X+019769Y+032500
X+019769Y+016751
X+019769Y+015751
X+019769Y+014751
X+019769Y+013751
X+019769Y+012751
X+019769Y+011751
X+019769Y+010751
X+019769Y+009751
X+022769Y+009751
X+022769Y+010751
X+022769Y+011751
X+022769Y+012751
X+022769Y+013751
X+022769Y+014751
X+022769Y+015751
X+022769Y+016751
T03
X+030315Y+003562
X+029315Y+003562
X+025204Y+003250
X+024204Y+003250
X+024204Y+002250
X+025204Y+002250
X+023204Y+002250
X+023204Y+003250
X+022204Y+003250
X+022204Y+002250
X+021204Y+002250
X+021204Y+003250
X+020204Y+003250
X+020204Y+002250
X+019204Y+002250
X+019204Y+003250
X+018204Y+003250
X+018204Y+002250
X+017204Y+002250
X+016204Y+002250
X+016204Y+003250
X+017204Y+003250
T04
X+030800Y+002812
X+028831Y+002812
X+026869Y+005825
X+026081Y+008187
X+026869Y+010550
X+026869Y+012575
X+026081Y+014937
X+026869Y+017300
X+026869Y+019325
X+026081Y+021687
X+026869Y+024050
X+026869Y+026075
X+026081Y+028438
X+026869Y+030800
X+026869Y+032825
X+026081Y+035188
X+026869Y+037550
X+026869Y+039575
X+026081Y+041938
X+026869Y+044300
X+026869Y+046325
X+026081Y+048688
X+026869Y+051050
X+026869Y+053075
X+026081Y+055437
X+026869Y+057800
X+031672Y+057800
X+031672Y+053075
X+031672Y+051050
X+031672Y+046325
X+031672Y+044300
X+031672Y+039575
X+031672Y+037550
X+031672Y+032825
X+031672Y+030800
X+031672Y+026075
X+031672Y+024050
X+031672Y+019325
X+031672Y+017300
X+031672Y+012575
X+031672Y+010550
X+031672Y+005825
X+013581Y+008187
X+012794Y+010550
X+012794Y+012575
X+013581Y+014937
X+012794Y+017300
X+012794Y+019325
X+013581Y+021687
X+012794Y+024050
X+012794Y+026075
X+013581Y+028438
X+012794Y+030800
X+012794Y+032825
X+013581Y+035188
X+012794Y+037550
X+012794Y+039575
X+013581Y+041938
X+012794Y+044300
X+012794Y+046325
X+013581Y+048688
X+012794Y+051050
X+012794Y+053075
X+013581Y+055438
X+012794Y+057800
X+007991Y+057800
X+007991Y+053075
X+007991Y+051050
X+007991Y+046325
X+007991Y+044300
X+007991Y+039575
X+007991Y+037550
X+007991Y+032825
X+007991Y+030800
X+007991Y+026075
X+007991Y+024050
X+007991Y+019325
X+007991Y+017300
X+007991Y+012575
X+007991Y+010550
X+007991Y+005825
X+012794Y+005825
T05
X+003525Y+053438
X+003525Y+055406
X+003525Y+057375
X+003525Y+050625
X+003525Y+048656
X+003525Y+046688
X+003525Y+043875
X+003525Y+041906
X+003525Y+039938
X+003525Y+037125
X+003525Y+035156
X+003525Y+033188
X+003525Y+030375
X+003525Y+028406
X+003525Y+026438
X+003525Y+023625
X+003525Y+021656
X+003525Y+019687
X+003525Y+016937
X+003525Y+014969
X+003525Y+013000
X+003525Y+010125
X+003525Y+008156
X+003525Y+006187
X+036080Y+006250
X+036080Y+008219
X+036080Y+010187
X+036080Y+013000
X+036080Y+014969
X+036080Y+016937
X+036080Y+019750
X+036080Y+021719
X+036080Y+023687
X+036080Y+026438
X+036080Y+028406
X+036080Y+030375
X+036080Y+033250
X+036080Y+035219
X+036080Y+037188
X+036080Y+039938
X+036080Y+041906
X+036080Y+043875
X+036080Y+046750
X+036080Y+048719
X+036080Y+050688
X+036080Y+053438
X+036080Y+055406
X+036080Y+057375
T06
X+019704Y+056693
X+002381Y+002362
X+037027Y+002362
T00
M30
