G04 DipTrace 3.3.1.3*
G04 Bottom.gbr*
%MOMM*%
G04 #@! TF.FileFunction,Copper,L2,Bot*
G04 #@! TF.Part,Single*
G04 #@! TA.AperFunction,Conductor*
%ADD13C,0.4*%
%ADD15C,1.0*%
%ADD16C,0.3*%
G04 #@! TA.AperFunction,ComponentPad*
%ADD17C,2.5*%
%ADD18R,2.5X2.5*%
%ADD19C,1.7*%
%ADD20R,1.7X1.7*%
%ADD21C,1.8*%
%ADD22R,1.8X1.8*%
%FSLAX35Y35*%
G04*
G71*
G90*
G75*
G01*
G04 Bottom*
%LPD*%
X3738500Y18796000D2*
D13*
X4119500Y19177000D1*
X3738500Y17653000D2*
X3929000D1*
X4310000Y18034000D1*
X3738500Y16510000D2*
X4119500Y16891000D1*
X3738500Y15367000D2*
X3929000D1*
X4310000Y15748000D1*
X3738500Y14224000D2*
X4119500Y14605000D1*
X3738500Y13081000D2*
X3929000D1*
X4310000Y13462000D1*
X3738500Y11938000D2*
X4119500Y12319000D1*
X3738500Y10795000D2*
X3929000D1*
X4310000Y11176000D1*
X3738500Y9652000D2*
X4119500Y10033000D1*
X3738500Y8509000D2*
X3929000D1*
X4310000Y8890000D1*
X3738500Y7366000D2*
X4119500Y7747000D1*
X3738500Y6223000D2*
X3929000D1*
X4310000Y6604000D1*
X3738500Y5080000D2*
X4119500Y5461000D1*
X3738500Y3937000D2*
X3929000D1*
X4310000Y4318000D1*
X3738500Y2794000D2*
X4119500Y3175000D1*
X3738500Y1651000D2*
X3929000D1*
X4310000Y2032000D1*
X2754250Y1651000D2*
D15*
X2976500D1*
X2754250Y2794000D2*
X2976500D1*
X2754250Y3937000D2*
X2976500D1*
X2754250Y5080000D2*
X2976500D1*
X2754250Y6223000D2*
X2976500D1*
X2754250Y7366000D2*
X2976500D1*
X2754250Y8509000D2*
X2976500D1*
X2754250Y9652000D2*
X2976500D1*
X2754250Y10795000D2*
X2976500D1*
X2754250Y11938000D2*
X2976500D1*
X2754250Y13081000D2*
X2976500D1*
X2754250Y14224000D2*
X2976500D1*
X2754250Y15367000D2*
X2976500D1*
X2754250Y16510000D2*
X2976500D1*
X2754250Y17653000D2*
X2976500D1*
X2754250Y18796000D2*
X2976500D1*
X1165000Y18799803D2*
X1734447D1*
X1738250Y18796000D1*
X1165000Y18291803D2*
X2726303D1*
X2976500Y18542000D1*
X1165000Y17656803D2*
X1734447D1*
X1738250Y17653000D1*
X1165000Y17148803D2*
X2726303D1*
X2976500Y17399000D1*
X1165000Y16513803D2*
X1734447D1*
X1738250Y16510000D1*
X1165000Y16005803D2*
X2726303D1*
X2976500Y16256000D1*
X1165000Y15370803D2*
X1734447D1*
X1738250Y15367000D1*
X1165000Y14862803D2*
X2726303D1*
X2976500Y15113000D1*
X1165000Y14227803D2*
X1734447D1*
X1738250Y14224000D1*
X1165000Y13719803D2*
X2726303D1*
X2976500Y13970000D1*
X1165000Y13084803D2*
X1734447D1*
X1738250Y13081000D1*
X1165000Y12576803D2*
X2726303D1*
X2976500Y12827000D1*
X1165000Y11941803D2*
X1734447D1*
X1738250Y11938000D1*
X1165000Y11433803D2*
X2726303D1*
X2976500Y11684000D1*
X1165000Y10798803D2*
X1734447D1*
X1738250Y10795000D1*
X1165000Y9655803D2*
X1734447D1*
X1738250Y9652000D1*
X1165000Y8512803D2*
X1734447D1*
X1738250Y8509000D1*
X1165000Y10290803D2*
X2726303D1*
X2976500Y10541000D1*
X1165000Y9147803D2*
X2726303D1*
X2976500Y9398000D1*
X1165000Y8004803D2*
X2726303D1*
X2976500Y8255000D1*
X1165000Y7369803D2*
X1734447D1*
X1738250Y7366000D1*
X1165000Y6861803D2*
X2726303D1*
X2976500Y7112000D1*
X1165000Y6226803D2*
X1734447D1*
X1738250Y6223000D1*
X1165000Y5718803D2*
X2726303D1*
X2976500Y5969000D1*
X1165000Y5083803D2*
X1734447D1*
X1738250Y5080000D1*
X1165000Y4575803D2*
X2726303D1*
X2976500Y4826000D1*
X1165000Y3940803D2*
X1734447D1*
X1738250Y3937000D1*
X1165000Y3432803D2*
X2726303D1*
X2976500Y3683000D1*
X1165000Y2797803D2*
X1734447D1*
X1738250Y2794000D1*
X1165000Y2289803D2*
X2726303D1*
X2976500Y2540000D1*
X1165000Y1654803D2*
X1734447D1*
X1738250Y1651000D1*
X1165000Y1146803D2*
X2726303D1*
X2976500Y1397000D1*
X5008500Y10985500D2*
D13*
X5040250D1*
X5167250Y11112500D1*
D16*
X5357750D1*
D13*
X5421250Y11176000D1*
Y11557000D1*
X4945000Y12033250D1*
Y17684750D1*
X4468750Y18161000D1*
X4119500D1*
X5008500Y10731500D2*
X4992623D1*
X4849750Y10874373D1*
Y15462250D1*
X4437000Y15875000D1*
X4119500D1*
X5262500Y10731500D2*
X5135500Y10604500D1*
D16*
X4897373D1*
D13*
X4754500Y10747373D1*
Y14287500D1*
X4310000Y14732000D1*
X5008500Y10477500D2*
X4833873D1*
X4659250Y10652123D1*
Y13366750D1*
X4437000Y13589000D1*
X4119500D1*
X5262500Y10477500D2*
X5135500Y10350500D1*
D16*
X4786250D1*
D13*
X4564000Y10572750D1*
Y12192000D1*
X4310000Y12446000D1*
X5008500Y10223500D2*
X4738623D1*
X4468750Y10493373D1*
Y11239500D1*
X4373500Y11334750D1*
X4119500D1*
Y11303000D1*
X5262500Y10223500D2*
X5135500Y10096500D1*
D16*
X4779000D1*
D13*
X4373500D1*
X4310000Y10160000D1*
X5008500Y9969500D2*
X4849750D1*
X4119500Y9239250D1*
Y9017000D1*
X5262500Y9969500D2*
X5135500Y9842500D1*
D16*
X4849750D1*
D13*
X4468750Y9461500D1*
Y8032750D1*
X4310000Y7874000D1*
X5008500Y9715500D2*
X4849750D1*
X4564000Y9429750D1*
Y7175500D1*
X4119500Y6731000D1*
X5262500Y9715500D2*
X5135500Y9588500D1*
D16*
X4849750D1*
D13*
X4659250Y9398000D1*
Y5937250D1*
X4310000Y5588000D1*
X5008500Y9461500D2*
X4881500D1*
X4754500Y9334500D1*
Y5080000D1*
X4119500Y4445000D1*
X5262500Y9461500D2*
X5135500Y9334500D1*
D16*
X4913250D1*
D13*
X4849750Y9271000D1*
Y3841750D1*
X4310000Y3302000D1*
X5008500Y9207500D2*
X5135500Y9080500D1*
D16*
Y8799583D1*
D13*
Y7874000D1*
X4945000Y7683500D1*
Y2984500D1*
X4119500Y2159000D1*
X5262500Y9207500D2*
X5421250Y9048750D1*
Y8032750D1*
X5040250Y7651750D1*
Y1746250D1*
X4310000Y1016000D1*
D17*
X1165000Y18291803D3*
D18*
Y18799803D3*
D17*
Y17148803D3*
D18*
Y17656803D3*
D17*
Y16005803D3*
D18*
Y16513803D3*
D17*
Y14862803D3*
D18*
Y15370803D3*
D17*
Y13719803D3*
D18*
Y14227803D3*
D17*
Y12576803D3*
D18*
Y13084803D3*
D17*
Y11433803D3*
D18*
Y11941803D3*
D17*
Y10290803D3*
D18*
Y10798803D3*
D17*
Y9147803D3*
D18*
Y9655803D3*
D17*
Y8004803D3*
D18*
Y8512803D3*
D17*
Y6861803D3*
D18*
Y7369803D3*
D17*
Y5718803D3*
D18*
Y6226803D3*
D17*
Y4575803D3*
D18*
Y5083803D3*
D17*
Y3432803D3*
D18*
Y3940803D3*
D17*
Y2289803D3*
D18*
Y2797803D3*
D17*
Y1146803D3*
D18*
Y1654803D3*
D19*
X5262500Y8953500D3*
Y9207500D3*
Y9461500D3*
Y9715500D3*
Y9969500D3*
Y10223500D3*
Y10477500D3*
Y10731500D3*
Y10985500D3*
Y11239500D3*
D20*
X5008500D3*
D19*
Y10985500D3*
Y10731500D3*
Y10477500D3*
Y10223500D3*
Y9969500D3*
Y9715500D3*
Y9461500D3*
Y9207500D3*
Y8953500D3*
D21*
X2754250Y18796000D3*
X1738250D3*
X2754250Y17653000D3*
X1738250D3*
X2754250Y16510000D3*
X1738250D3*
X2754250Y15367000D3*
X1738250D3*
X2754250Y14224000D3*
X1738250D3*
X2754250Y13081000D3*
X1738250D3*
X2754250Y11938000D3*
X1738250D3*
X2754250Y10795000D3*
X1738250D3*
X2754250Y9652000D3*
X1738250D3*
X2754250Y8509000D3*
X1738250D3*
X2754250Y7366000D3*
X1738250D3*
X2754250Y6223000D3*
X1738250D3*
X2754250Y5080000D3*
X1738250D3*
X2754250Y3937000D3*
X1738250D3*
X2754250Y2794000D3*
X1738250D3*
X2754250Y1651000D3*
X1738250D3*
X4119500Y18161000D3*
Y19177000D3*
X4310000Y17018000D3*
Y18034000D3*
X4119500Y15875000D3*
Y16891000D3*
X4310000Y14732000D3*
Y15748000D3*
X4119500Y13589000D3*
Y14605000D3*
X4310000Y12446000D3*
Y13462000D3*
X4119500Y11303000D3*
Y12319000D3*
X4310000Y10160000D3*
Y11176000D3*
X4119500Y9017000D3*
Y10033000D3*
X4310000Y7874000D3*
Y8890000D3*
X4119500Y6731000D3*
Y7747000D3*
X4310000Y5588000D3*
Y6604000D3*
X4119500Y4445000D3*
Y5461000D3*
X4310000Y3302000D3*
Y4318000D3*
X4119500Y2159000D3*
Y3175000D3*
X4310000Y1016000D3*
Y2032000D3*
D22*
X2976500Y18796000D3*
D21*
Y18542000D3*
X3738500D3*
Y18796000D3*
D22*
X2976500Y17653000D3*
D21*
Y17399000D3*
X3738500D3*
Y17653000D3*
D22*
X2976500Y16510000D3*
D21*
Y16256000D3*
X3738500D3*
Y16510000D3*
D22*
X2976500Y15367000D3*
D21*
Y15113000D3*
X3738500D3*
Y15367000D3*
D22*
X2976500Y14224000D3*
D21*
Y13970000D3*
X3738500D3*
Y14224000D3*
D22*
X2976500Y13081000D3*
D21*
Y12827000D3*
X3738500D3*
Y13081000D3*
D22*
X2976500Y11938000D3*
D21*
Y11684000D3*
X3738500D3*
Y11938000D3*
D22*
X2976500Y10795000D3*
D21*
Y10541000D3*
X3738500D3*
Y10795000D3*
D22*
X2976500Y9652000D3*
D21*
Y9398000D3*
X3738500D3*
Y9652000D3*
D22*
X2976500Y8509000D3*
D21*
Y8255000D3*
X3738500D3*
Y8509000D3*
D22*
X2976500Y7366000D3*
D21*
Y7112000D3*
X3738500D3*
Y7366000D3*
D22*
X2976500Y6223000D3*
D21*
Y5969000D3*
X3738500D3*
Y6223000D3*
D22*
X2976500Y5080000D3*
D21*
Y4826000D3*
X3738500D3*
Y5080000D3*
D22*
X2976500Y3937000D3*
D21*
Y3683000D3*
X3738500D3*
Y3937000D3*
D22*
X2976500Y2794000D3*
D21*
Y2540000D3*
X3738500D3*
Y2794000D3*
D22*
X2976500Y1651000D3*
D21*
Y1397000D3*
X3738500D3*
Y1651000D3*
M02*
