M48
METRIC,0000.00
T01C0.9
T02C0.965
T03C1.0
T04C1.3
T05C3.5
T06C4.0
%
T01
X+002976Y+018796
X+002976Y+018542
X+003738Y+018542
X+003738Y+018796
X+003738Y+017653
X+003738Y+017399
X+002976Y+017399
X+002976Y+017653
X+002976Y+016510
X+002976Y+016256
X+003738Y+016256
X+003738Y+016510
X+003738Y+015367
X+003738Y+015113
X+002976Y+015113
X+002976Y+015367
X+002976Y+014224
X+002976Y+013970
X+003738Y+013970
X+003738Y+014224
X+003738Y+013081
X+003738Y+012827
X+002976Y+012827
X+002976Y+013081
X+002976Y+011938
X+002976Y+011684
X+003738Y+011684
X+003738Y+011938
X+003738Y+010795
X+003738Y+010541
X+002976Y+010541
X+002976Y+010795
X+002976Y+009652
X+002976Y+009398
X+003738Y+009398
X+003738Y+009652
X+003738Y+008509
X+003738Y+008255
X+002976Y+008255
X+002976Y+008509
X+002976Y+007366
X+002976Y+007112
X+003738Y+007112
X+003738Y+007366
X+003738Y+006223
X+003738Y+005969
X+002976Y+005969
X+002976Y+006223
X+002976Y+005080
X+002976Y+004826
X+003738Y+004826
X+003738Y+005080
X+003738Y+003937
X+003738Y+003683
X+002976Y+003683
X+002976Y+003937
X+002976Y+002794
X+002976Y+002540
X+003738Y+002540
X+003738Y+002794
X+003738Y+001651
X+003738Y+001397
X+002976Y+001397
X+002976Y+001651
T02
X+002754Y+018796
X+001738Y+018796
X+001738Y+017653
X+002754Y+017653
X+002754Y+016510
X+001738Y+016510
X+001738Y+015367
X+002754Y+015367
X+002754Y+014224
X+001738Y+014224
X+001738Y+013081
X+002754Y+013081
X+002754Y+011938
X+001738Y+011938
X+001738Y+010795
X+002754Y+010795
X+002754Y+009652
X+001738Y+009652
X+001738Y+008509
X+002754Y+008509
X+002754Y+007366
X+001738Y+007366
X+001738Y+006223
X+002754Y+006223
X+002754Y+005080
X+001738Y+005080
X+001738Y+003937
X+002754Y+003937
X+002754Y+002794
X+001738Y+002794
X+001738Y+001651
X+002754Y+001651
X+004119Y+002159
X+004310Y+002032
X+004310Y+001016
X+004119Y+003175
X+004310Y+003302
X+004310Y+004318
X+004119Y+004445
X+004119Y+005461
X+004310Y+005588
X+004310Y+006604
X+004119Y+006731
X+004119Y+007747
X+004310Y+007874
X+004310Y+008890
X+004119Y+009017
X+004119Y+010033
X+004310Y+010160
X+004310Y+011176
X+004119Y+011303
X+004119Y+012319
X+004310Y+012446
X+004310Y+013462
X+004119Y+013589
X+004119Y+014605
X+004310Y+014732
X+004310Y+015748
X+004119Y+015875
X+004119Y+016891
X+004310Y+017018
X+004310Y+018034
X+004119Y+018161
X+004119Y+019177
T03
X+005263Y+008954
X+005263Y+009208
X+005263Y+009462
X+005263Y+009716
X+005263Y+009970
X+005263Y+010224
X+005263Y+010477
X+005263Y+010732
X+005263Y+010986
X+005263Y+011239
X+005008Y+011239
X+005008Y+010986
X+005008Y+010732
X+005008Y+010477
X+005008Y+010224
X+005008Y+009970
X+005008Y+009716
X+005008Y+009462
X+005008Y+009208
X+005008Y+008954
T04
X+001165Y+018292
X+001165Y+018800
X+001165Y+017657
X+001165Y+017149
X+001165Y+016514
X+001165Y+016006
X+001165Y+015371
X+001165Y+014863
X+001165Y+014228
X+001165Y+013720
X+001165Y+013085
X+001165Y+012577
X+001165Y+011942
X+001165Y+011434
X+001165Y+010799
X+001165Y+010291
X+001165Y+009656
X+001165Y+009148
X+001165Y+008513
X+001165Y+008005
X+001165Y+007370
X+001165Y+006862
X+001165Y+006227
X+001165Y+005719
X+001165Y+005084
X+001165Y+004576
X+001165Y+003941
X+001165Y+003433
X+001165Y+002798
X+001165Y+002290
X+001165Y+001655
X+001165Y+001147
T05
X+000492Y+019500
T06
X+005492Y+019500
X+005492Y+000500
X+000492Y+000500
T00
M30
