G04 DipTrace 3.3.1.3*
G04 Top.gbr*
%MOMM*%
G04 #@! TF.FileFunction,Copper,L1,Top*
G04 #@! TF.Part,Single*
G04 #@! TA.AperFunction,Conductor*
%ADD13C,0.4*%
%ADD14C,0.6*%
G04 #@! TA.AperFunction,ComponentPad*
%ADD17C,2.5*%
%ADD18R,2.5X2.5*%
%ADD19C,1.7*%
%ADD20R,1.7X1.7*%
%ADD21C,1.8*%
%ADD22R,1.8X1.8*%
%FSLAX35Y35*%
G04*
G71*
G90*
G75*
G01*
G04 Top*
%LPD*%
X3738500Y18542000D2*
D14*
X3929000D1*
Y17399000D1*
Y16256000D1*
Y15113000D1*
Y13970000D1*
Y12827000D1*
Y11811000D1*
Y11684000D1*
Y10582297D1*
Y9398000D1*
Y8255000D1*
Y7112000D1*
Y5969000D1*
Y4826000D1*
Y3712660D1*
Y2540000D1*
Y1587500D1*
X3738500Y1397000D1*
Y2540000D2*
X3929000D1*
X3738500Y3683000D2*
X3899340D1*
X3929000Y3712660D1*
X3738500Y4826000D2*
X3929000D1*
X3738500Y5969000D2*
X3929000D1*
X3738500Y7112000D2*
X3929000D1*
X3738500Y8255000D2*
X3929000D1*
X3738500Y9398000D2*
X3929000D1*
X3738500Y10541000D2*
X3887703D1*
X3929000Y10582297D1*
X3738500Y11684000D2*
X3929000D1*
X3738500Y12827000D2*
X3929000D1*
X3738500Y13970000D2*
X3929000D1*
X3738500Y15113000D2*
X3929000D1*
X3738500Y16256000D2*
X3929000D1*
X3738500Y17399000D2*
X3929000D1*
X5262500Y11239500D2*
Y11334750D1*
X4786250Y11811000D1*
X3929000D1*
X5262500Y10985500D2*
D13*
Y11001373D1*
X5421250Y11160123D1*
Y11541127D1*
X4564000Y12398377D1*
Y16764000D1*
X4310000Y17018000D1*
D17*
X1165000Y18291803D3*
D18*
Y18799803D3*
D17*
Y17148803D3*
D18*
Y17656803D3*
D17*
Y16005803D3*
D18*
Y16513803D3*
D17*
Y14862803D3*
D18*
Y15370803D3*
D17*
Y13719803D3*
D18*
Y14227803D3*
D17*
Y12576803D3*
D18*
Y13084803D3*
D17*
Y11433803D3*
D18*
Y11941803D3*
D17*
Y10290803D3*
D18*
Y10798803D3*
D17*
Y9147803D3*
D18*
Y9655803D3*
D17*
Y8004803D3*
D18*
Y8512803D3*
D17*
Y6861803D3*
D18*
Y7369803D3*
D17*
Y5718803D3*
D18*
Y6226803D3*
D17*
Y4575803D3*
D18*
Y5083803D3*
D17*
Y3432803D3*
D18*
Y3940803D3*
D17*
Y2289803D3*
D18*
Y2797803D3*
D17*
Y1146803D3*
D18*
Y1654803D3*
D19*
X5262500Y8953500D3*
Y9207500D3*
Y9461500D3*
Y9715500D3*
Y9969500D3*
Y10223500D3*
Y10477500D3*
Y10731500D3*
Y10985500D3*
Y11239500D3*
D20*
X5008500D3*
D19*
Y10985500D3*
Y10731500D3*
Y10477500D3*
Y10223500D3*
Y9969500D3*
Y9715500D3*
Y9461500D3*
Y9207500D3*
Y8953500D3*
D21*
X2754250Y18796000D3*
X1738250D3*
X2754250Y17653000D3*
X1738250D3*
X2754250Y16510000D3*
X1738250D3*
X2754250Y15367000D3*
X1738250D3*
X2754250Y14224000D3*
X1738250D3*
X2754250Y13081000D3*
X1738250D3*
X2754250Y11938000D3*
X1738250D3*
X2754250Y10795000D3*
X1738250D3*
X2754250Y9652000D3*
X1738250D3*
X2754250Y8509000D3*
X1738250D3*
X2754250Y7366000D3*
X1738250D3*
X2754250Y6223000D3*
X1738250D3*
X2754250Y5080000D3*
X1738250D3*
X2754250Y3937000D3*
X1738250D3*
X2754250Y2794000D3*
X1738250D3*
X2754250Y1651000D3*
X1738250D3*
X4119500Y18161000D3*
Y19177000D3*
X4310000Y17018000D3*
Y18034000D3*
X4119500Y15875000D3*
Y16891000D3*
X4310000Y14732000D3*
Y15748000D3*
X4119500Y13589000D3*
Y14605000D3*
X4310000Y12446000D3*
Y13462000D3*
X4119500Y11303000D3*
Y12319000D3*
X4310000Y10160000D3*
Y11176000D3*
X4119500Y9017000D3*
Y10033000D3*
X4310000Y7874000D3*
Y8890000D3*
X4119500Y6731000D3*
Y7747000D3*
X4310000Y5588000D3*
Y6604000D3*
X4119500Y4445000D3*
Y5461000D3*
X4310000Y3302000D3*
Y4318000D3*
X4119500Y2159000D3*
Y3175000D3*
X4310000Y1016000D3*
Y2032000D3*
D22*
X2976500Y18796000D3*
D21*
Y18542000D3*
X3738500D3*
Y18796000D3*
D22*
X2976500Y17653000D3*
D21*
Y17399000D3*
X3738500D3*
Y17653000D3*
D22*
X2976500Y16510000D3*
D21*
Y16256000D3*
X3738500D3*
Y16510000D3*
D22*
X2976500Y15367000D3*
D21*
Y15113000D3*
X3738500D3*
Y15367000D3*
D22*
X2976500Y14224000D3*
D21*
Y13970000D3*
X3738500D3*
Y14224000D3*
D22*
X2976500Y13081000D3*
D21*
Y12827000D3*
X3738500D3*
Y13081000D3*
D22*
X2976500Y11938000D3*
D21*
Y11684000D3*
X3738500D3*
Y11938000D3*
D22*
X2976500Y10795000D3*
D21*
Y10541000D3*
X3738500D3*
Y10795000D3*
D22*
X2976500Y9652000D3*
D21*
Y9398000D3*
X3738500D3*
Y9652000D3*
D22*
X2976500Y8509000D3*
D21*
Y8255000D3*
X3738500D3*
Y8509000D3*
D22*
X2976500Y7366000D3*
D21*
Y7112000D3*
X3738500D3*
Y7366000D3*
D22*
X2976500Y6223000D3*
D21*
Y5969000D3*
X3738500D3*
Y6223000D3*
D22*
X2976500Y5080000D3*
D21*
Y4826000D3*
X3738500D3*
Y5080000D3*
D22*
X2976500Y3937000D3*
D21*
Y3683000D3*
X3738500D3*
Y3937000D3*
D22*
X2976500Y2794000D3*
D21*
Y2540000D3*
X3738500D3*
Y2794000D3*
D22*
X2976500Y1651000D3*
D21*
Y1397000D3*
X3738500D3*
Y1651000D3*
M02*
