G04 DipTrace 3.3.1.3*
G04 TopSilk.gbr*
%MOMM*%
G04 #@! TF.FileFunction,Legend,Top*
G04 #@! TF.Part,Single*
%ADD10C,0.25*%
%ADD13C,0.4*%
%ADD33C,0.15686*%
%ADD34C,0.31373*%
%ADD35C,0.23529*%
%ADD36C,0.19608*%
%FSLAX35Y35*%
G04*
G71*
G90*
G75*
G01*
G04 TopSilk*
%LPD*%
X755006Y18041803D2*
D10*
Y19109803D1*
X1575002D1*
Y18041803D1*
X755006D1*
G36*
X827339Y18331872D2*
X747392D1*
Y18252093D1*
X827339D1*
Y18331872D1*
G37*
G36*
Y18839706D2*
X747392D1*
Y18759927D1*
X827339D1*
Y18839706D1*
G37*
X755006Y16898803D2*
D10*
Y17966803D1*
X1575002D1*
Y16898803D1*
X755006D1*
G36*
X827339Y17188872D2*
X747392D1*
Y17109093D1*
X827339D1*
Y17188872D1*
G37*
G36*
Y17696706D2*
X747392D1*
Y17616927D1*
X827339D1*
Y17696706D1*
G37*
X755006Y15755803D2*
D10*
Y16823803D1*
X1575002D1*
Y15755803D1*
X755006D1*
G36*
X827339Y16045872D2*
X747392D1*
Y15966093D1*
X827339D1*
Y16045872D1*
G37*
G36*
Y16553706D2*
X747392D1*
Y16473927D1*
X827339D1*
Y16553706D1*
G37*
X755006Y14612803D2*
D10*
Y15680803D1*
X1575002D1*
Y14612803D1*
X755006D1*
G36*
X827339Y14902872D2*
X747392D1*
Y14823093D1*
X827339D1*
Y14902872D1*
G37*
G36*
Y15410706D2*
X747392D1*
Y15330927D1*
X827339D1*
Y15410706D1*
G37*
X755006Y13469803D2*
D10*
Y14537803D1*
X1575002D1*
Y13469803D1*
X755006D1*
G36*
X827339Y13759872D2*
X747392D1*
Y13680093D1*
X827339D1*
Y13759872D1*
G37*
G36*
Y14267706D2*
X747392D1*
Y14187927D1*
X827339D1*
Y14267706D1*
G37*
X755006Y12326803D2*
D10*
Y13394803D1*
X1575002D1*
Y12326803D1*
X755006D1*
G36*
X827339Y12616872D2*
X747392D1*
Y12537093D1*
X827339D1*
Y12616872D1*
G37*
G36*
Y13124706D2*
X747392D1*
Y13044927D1*
X827339D1*
Y13124706D1*
G37*
X755006Y11183803D2*
D10*
Y12251803D1*
X1575002D1*
Y11183803D1*
X755006D1*
G36*
X827339Y11473872D2*
X747392D1*
Y11394093D1*
X827339D1*
Y11473872D1*
G37*
G36*
Y11981706D2*
X747392D1*
Y11901927D1*
X827339D1*
Y11981706D1*
G37*
X755006Y10040803D2*
D10*
Y11108803D1*
X1575002D1*
Y10040803D1*
X755006D1*
G36*
X827339Y10330872D2*
X747392D1*
Y10251093D1*
X827339D1*
Y10330872D1*
G37*
G36*
Y10838706D2*
X747392D1*
Y10758927D1*
X827339D1*
Y10838706D1*
G37*
X755006Y8897803D2*
D10*
Y9965803D1*
X1575002D1*
Y8897803D1*
X755006D1*
G36*
X827339Y9187872D2*
X747392D1*
Y9108093D1*
X827339D1*
Y9187872D1*
G37*
G36*
Y9695706D2*
X747392D1*
Y9615927D1*
X827339D1*
Y9695706D1*
G37*
X755006Y7754803D2*
D10*
Y8822803D1*
X1575002D1*
Y7754803D1*
X755006D1*
G36*
X827339Y8044872D2*
X747392D1*
Y7965093D1*
X827339D1*
Y8044872D1*
G37*
G36*
Y8552706D2*
X747392D1*
Y8472927D1*
X827339D1*
Y8552706D1*
G37*
X755006Y6611803D2*
D10*
Y7679803D1*
X1575002D1*
Y6611803D1*
X755006D1*
G36*
X827339Y6901872D2*
X747392D1*
Y6822093D1*
X827339D1*
Y6901872D1*
G37*
G36*
Y7409706D2*
X747392D1*
Y7329927D1*
X827339D1*
Y7409706D1*
G37*
X755006Y5468803D2*
D10*
Y6536803D1*
X1575002D1*
Y5468803D1*
X755006D1*
G36*
X827339Y5758872D2*
X747392D1*
Y5679093D1*
X827339D1*
Y5758872D1*
G37*
G36*
Y6266706D2*
X747392D1*
Y6186927D1*
X827339D1*
Y6266706D1*
G37*
X755006Y4325803D2*
D10*
Y5393803D1*
X1575002D1*
Y4325803D1*
X755006D1*
G36*
X827339Y4615872D2*
X747392D1*
Y4536093D1*
X827339D1*
Y4615872D1*
G37*
G36*
Y5123706D2*
X747392D1*
Y5043927D1*
X827339D1*
Y5123706D1*
G37*
X755006Y3182803D2*
D10*
Y4250803D1*
X1575002D1*
Y3182803D1*
X755006D1*
G36*
X827339Y3472872D2*
X747392D1*
Y3393093D1*
X827339D1*
Y3472872D1*
G37*
G36*
Y3980706D2*
X747392D1*
Y3900927D1*
X827339D1*
Y3980706D1*
G37*
X755006Y2039803D2*
D10*
Y3107803D1*
X1575002D1*
Y2039803D1*
X755006D1*
G36*
X827339Y2329872D2*
X747392D1*
Y2250093D1*
X827339D1*
Y2329872D1*
G37*
G36*
Y2837706D2*
X747392D1*
Y2757927D1*
X827339D1*
Y2837706D1*
G37*
X755006Y896803D2*
D10*
Y1964803D1*
X1575002D1*
Y896803D1*
X755006D1*
G36*
X827339Y1186872D2*
X747392D1*
Y1107093D1*
X827339D1*
Y1186872D1*
G37*
G36*
Y1694706D2*
X747392D1*
Y1614927D1*
X827339D1*
Y1694706D1*
G37*
X5262665Y11747500D2*
D10*
Y11684762D1*
X5008372D2*
X5262665D1*
X5008372Y11747500D2*
Y11684762D1*
X5262665Y8508238D2*
Y8445500D1*
X5008372Y8508238D2*
X5262665D1*
X5008372D2*
Y8445500D1*
X4691009D2*
X5580028D1*
X4691009Y11747500D2*
X5580028D1*
X4691009D2*
Y8445500D1*
X5503539Y10301224D2*
X5580028D1*
X5503539D2*
Y9891776D1*
X5580028D1*
Y11747500D2*
Y10301224D1*
Y9891776D2*
Y8445500D1*
X1992707Y18923000D2*
X2499793D1*
Y18669000D2*
Y18923000D1*
X1992707Y18669000D2*
X2499793D1*
X1992707D2*
Y18923000D1*
Y17780000D2*
X2499793D1*
Y17526000D2*
Y17780000D1*
X1992707Y17526000D2*
X2499793D1*
X1992707D2*
Y17780000D1*
Y16637000D2*
X2499793D1*
Y16383000D2*
Y16637000D1*
X1992707Y16383000D2*
X2499793D1*
X1992707D2*
Y16637000D1*
Y15494000D2*
X2499793D1*
Y15240000D2*
Y15494000D1*
X1992707Y15240000D2*
X2499793D1*
X1992707D2*
Y15494000D1*
Y14351000D2*
X2499793D1*
Y14097000D2*
Y14351000D1*
X1992707Y14097000D2*
X2499793D1*
X1992707D2*
Y14351000D1*
Y13208000D2*
X2499793D1*
Y12954000D2*
Y13208000D1*
X1992707Y12954000D2*
X2499793D1*
X1992707D2*
Y13208000D1*
Y12065000D2*
X2499793D1*
Y11811000D2*
Y12065000D1*
X1992707Y11811000D2*
X2499793D1*
X1992707D2*
Y12065000D1*
Y10922000D2*
X2499793D1*
Y10668000D2*
Y10922000D1*
X1992707Y10668000D2*
X2499793D1*
X1992707D2*
Y10922000D1*
Y9779000D2*
X2499793D1*
Y9525000D2*
Y9779000D1*
X1992707Y9525000D2*
X2499793D1*
X1992707D2*
Y9779000D1*
Y8636000D2*
X2499793D1*
Y8382000D2*
Y8636000D1*
X1992707Y8382000D2*
X2499793D1*
X1992707D2*
Y8636000D1*
Y7493000D2*
X2499793D1*
Y7239000D2*
Y7493000D1*
X1992707Y7239000D2*
X2499793D1*
X1992707D2*
Y7493000D1*
Y6350000D2*
X2499793D1*
Y6096000D2*
Y6350000D1*
X1992707Y6096000D2*
X2499793D1*
X1992707D2*
Y6350000D1*
Y5207000D2*
X2499793D1*
Y4953000D2*
Y5207000D1*
X1992707Y4953000D2*
X2499793D1*
X1992707D2*
Y5207000D1*
Y4064000D2*
X2499793D1*
Y3810000D2*
Y4064000D1*
X1992707Y3810000D2*
X2499793D1*
X1992707D2*
Y4064000D1*
Y2921000D2*
X2499793D1*
Y2667000D2*
Y2921000D1*
X1992707Y2667000D2*
X2499793D1*
X1992707D2*
Y2921000D1*
Y1778000D2*
X2499793D1*
Y1524000D2*
Y1778000D1*
X1992707Y1524000D2*
X2499793D1*
X1992707D2*
Y1778000D1*
X4246500Y18922543D2*
Y18415457D1*
X3992500D2*
X4246500D1*
X3992500Y18922543D2*
Y18415457D1*
Y18922543D2*
X4246500D1*
X4437000Y17779543D2*
Y17272457D1*
X4183000D2*
X4437000D1*
X4183000Y17779543D2*
Y17272457D1*
Y17779543D2*
X4437000D1*
X4246500Y16636543D2*
Y16129457D1*
X3992500D2*
X4246500D1*
X3992500Y16636543D2*
Y16129457D1*
Y16636543D2*
X4246500D1*
X4437000Y15493543D2*
Y14986457D1*
X4183000D2*
X4437000D1*
X4183000Y15493543D2*
Y14986457D1*
Y15493543D2*
X4437000D1*
X4246500Y14350543D2*
Y13843457D1*
X3992500D2*
X4246500D1*
X3992500Y14350543D2*
Y13843457D1*
Y14350543D2*
X4246500D1*
X4437000Y13207543D2*
Y12700457D1*
X4183000D2*
X4437000D1*
X4183000Y13207543D2*
Y12700457D1*
Y13207543D2*
X4437000D1*
X4246500Y12064543D2*
Y11557457D1*
X3992500D2*
X4246500D1*
X3992500Y12064543D2*
Y11557457D1*
Y12064543D2*
X4246500D1*
X4437000Y10921543D2*
Y10414457D1*
X4183000D2*
X4437000D1*
X4183000Y10921543D2*
Y10414457D1*
Y10921543D2*
X4437000D1*
X4246500Y9778543D2*
Y9271457D1*
X3992500D2*
X4246500D1*
X3992500Y9778543D2*
Y9271457D1*
Y9778543D2*
X4246500D1*
X4437000Y8635543D2*
Y8128457D1*
X4183000D2*
X4437000D1*
X4183000Y8635543D2*
Y8128457D1*
Y8635543D2*
X4437000D1*
X4246500Y7492543D2*
Y6985457D1*
X3992500D2*
X4246500D1*
X3992500Y7492543D2*
Y6985457D1*
Y7492543D2*
X4246500D1*
X4437000Y6349543D2*
Y5842457D1*
X4183000D2*
X4437000D1*
X4183000Y6349543D2*
Y5842457D1*
Y6349543D2*
X4437000D1*
X4246500Y5206543D2*
Y4699457D1*
X3992500D2*
X4246500D1*
X3992500Y5206543D2*
Y4699457D1*
Y5206543D2*
X4246500D1*
X4437000Y4063543D2*
Y3556457D1*
X4183000D2*
X4437000D1*
X4183000Y4063543D2*
Y3556457D1*
Y4063543D2*
X4437000D1*
X4246500Y2920543D2*
Y2413457D1*
X3992500D2*
X4246500D1*
X3992500Y2920543D2*
Y2413457D1*
Y2920543D2*
X4246500D1*
X4437000Y1777543D2*
Y1270457D1*
X4183000D2*
X4437000D1*
X4183000Y1777543D2*
Y1270457D1*
Y1777543D2*
X4437000D1*
X3097489Y18929000D2*
Y18409000D1*
X3617511D1*
Y18929000D1*
X3417510D1*
X3297490D2*
X3097489D1*
X3297490D2*
G03X3417510Y18929000I60010J2D01*
G01*
X3097489Y17786000D2*
Y17266000D1*
X3617511D1*
Y17786000D1*
X3417510D1*
X3297490D2*
X3097489D1*
X3297490D2*
G03X3417510Y17786000I60010J2D01*
G01*
X3097489Y16643000D2*
Y16123000D1*
X3617511D1*
Y16643000D1*
X3417510D1*
X3297490D2*
X3097489D1*
X3297490D2*
G03X3417510Y16643000I60010J2D01*
G01*
X3097489Y15500000D2*
Y14980000D1*
X3617511D1*
Y15500000D1*
X3417510D1*
X3297490D2*
X3097489D1*
X3297490D2*
G03X3417510Y15500000I60010J2D01*
G01*
X3097489Y14357000D2*
Y13837000D1*
X3617511D1*
Y14357000D1*
X3417510D1*
X3297490D2*
X3097489D1*
X3297490D2*
G03X3417510Y14357000I60010J2D01*
G01*
X3097489Y13214000D2*
Y12694000D1*
X3617511D1*
Y13214000D1*
X3417510D1*
X3297490D2*
X3097489D1*
X3297490D2*
G03X3417510Y13214000I60010J2D01*
G01*
X3097489Y12071000D2*
Y11551000D1*
X3617511D1*
Y12071000D1*
X3417510D1*
X3297490D2*
X3097489D1*
X3297490D2*
G03X3417510Y12071000I60010J2D01*
G01*
X3097489Y10928000D2*
Y10408000D1*
X3617511D1*
Y10928000D1*
X3417510D1*
X3297490D2*
X3097489D1*
X3297490D2*
G03X3417510Y10928000I60010J2D01*
G01*
X3097489Y9785000D2*
Y9265000D1*
X3617511D1*
Y9785000D1*
X3417510D1*
X3297490D2*
X3097489D1*
X3297490D2*
G03X3417510Y9785000I60010J2D01*
G01*
X3097489Y8642000D2*
Y8122000D1*
X3617511D1*
Y8642000D1*
X3417510D1*
X3297490D2*
X3097489D1*
X3297490D2*
G03X3417510Y8642000I60010J2D01*
G01*
X3097489Y7499000D2*
Y6979000D1*
X3617511D1*
Y7499000D1*
X3417510D1*
X3297490D2*
X3097489D1*
X3297490D2*
G03X3417510Y7499000I60010J2D01*
G01*
X3097489Y6356000D2*
Y5836000D1*
X3617511D1*
Y6356000D1*
X3417510D1*
X3297490D2*
X3097489D1*
X3297490D2*
G03X3417510Y6356000I60010J2D01*
G01*
X3097489Y5213000D2*
Y4693000D1*
X3617511D1*
Y5213000D1*
X3417510D1*
X3297490D2*
X3097489D1*
X3297490D2*
G03X3417510Y5213000I60010J2D01*
G01*
X3097489Y4070000D2*
Y3550000D1*
X3617511D1*
Y4070000D1*
X3417510D1*
X3297490D2*
X3097489D1*
X3297490D2*
G03X3417510Y4070000I60010J2D01*
G01*
X3097489Y2927000D2*
Y2407000D1*
X3617511D1*
Y2927000D1*
X3417510D1*
X3297490D2*
X3097489D1*
X3297490D2*
G03X3417510Y2927000I60010J2D01*
G01*
X3097489Y1784000D2*
Y1264000D1*
X3617511D1*
Y1784000D1*
X3417510D1*
X3297490D2*
X3097489D1*
X3297490D2*
G03X3417510Y1784000I60010J2D01*
G01*
X738127Y18002250D2*
D13*
X103127D1*
X722250Y16859250D2*
X87250D1*
X722250Y15716250D2*
X87250D1*
X722250Y14573250D2*
X87250D1*
X722250Y13430250D2*
X87250D1*
X722250Y12287250D2*
X87250D1*
X722250Y11144250D2*
X87250D1*
X722250Y10001250D2*
X87250D1*
X722250Y8858250D2*
X87250D1*
X722250Y7715250D2*
X87250D1*
X722250Y6572250D2*
X87250D1*
X722250Y5429250D2*
X87250D1*
X722250Y4286250D2*
X87250D1*
X722250Y3143250D2*
X87250D1*
X722250Y2000250D2*
X87250D1*
X2184349Y19023160D2*
D33*
X2228037D1*
X2242637Y19028102D1*
X2247578Y19032931D1*
X2252408Y19042589D1*
Y19052360D1*
X2247578Y19062019D1*
X2242637Y19066960D1*
X2228037Y19071789D1*
X2184349D1*
Y18969702D1*
X2218378Y19023160D2*
X2252408Y18969702D1*
X2283780Y19052248D2*
X2293551Y19057189D1*
X2308151Y19071677D1*
Y18969702D1*
X2162505Y17880160D2*
X2206193D1*
X2220793Y17885102D1*
X2225734Y17889931D1*
X2230564Y17899589D1*
Y17909360D1*
X2225734Y17919019D1*
X2220793Y17923960D1*
X2206193Y17928789D1*
X2162505D1*
Y17826702D1*
X2196534Y17880160D2*
X2230564Y17826702D1*
X2266878Y17904419D2*
Y17909248D1*
X2271707Y17919019D1*
X2276536Y17923848D1*
X2286307Y17928677D1*
X2305736D1*
X2315395Y17923848D1*
X2320224Y17919019D1*
X2325166Y17909248D1*
Y17899589D1*
X2320224Y17889819D1*
X2310566Y17875331D1*
X2261936Y17826702D1*
X2329995D1*
X2162505Y16737160D2*
X2206193D1*
X2220793Y16742102D1*
X2225734Y16746931D1*
X2230564Y16756589D1*
Y16766360D1*
X2225734Y16776019D1*
X2220793Y16780960D1*
X2206193Y16785789D1*
X2162505D1*
Y16683702D1*
X2196534Y16737160D2*
X2230564Y16683702D1*
X2271707Y16785677D2*
X2325053D1*
X2295966Y16746819D1*
X2310566D1*
X2320224Y16741989D1*
X2325053Y16737160D1*
X2329995Y16722560D1*
Y16712902D1*
X2325053Y16698302D1*
X2315395Y16688531D1*
X2300795Y16683702D1*
X2286195D1*
X2271707Y16688531D1*
X2266878Y16693472D1*
X2261936Y16703131D1*
X2160091Y15594160D2*
X2203778D1*
X2218378Y15599102D1*
X2223320Y15603931D1*
X2228149Y15613589D1*
Y15623360D1*
X2223320Y15633019D1*
X2218378Y15637960D1*
X2203778Y15642789D1*
X2160091D1*
Y15540702D1*
X2194120Y15594160D2*
X2228149Y15540702D1*
X2308151D2*
Y15642677D1*
X2259522Y15574731D1*
X2332409D1*
X2162505Y14451160D2*
X2206193D1*
X2220793Y14456102D1*
X2225734Y14460931D1*
X2230564Y14470589D1*
Y14480360D1*
X2225734Y14490019D1*
X2220793Y14494960D1*
X2206193Y14499789D1*
X2162505D1*
Y14397702D1*
X2196534Y14451160D2*
X2230564Y14397702D1*
X2320224Y14499677D2*
X2271707D1*
X2266878Y14455989D1*
X2271707Y14460819D1*
X2286307Y14465760D1*
X2300795D1*
X2315395Y14460819D1*
X2325166Y14451160D1*
X2329995Y14436560D1*
Y14426902D1*
X2325166Y14412302D1*
X2315395Y14402531D1*
X2300795Y14397702D1*
X2286307D1*
X2271707Y14402531D1*
X2266878Y14407472D1*
X2261936Y14417131D1*
X2164976Y13308160D2*
X2208664D1*
X2223264Y13313102D1*
X2228205Y13317931D1*
X2233034Y13327589D1*
Y13337360D1*
X2228205Y13347019D1*
X2223264Y13351960D1*
X2208664Y13356789D1*
X2164976D1*
Y13254702D1*
X2199005Y13308160D2*
X2233034Y13254702D1*
X2322695Y13342189D2*
X2317866Y13351848D1*
X2303266Y13356677D1*
X2293607D1*
X2279007Y13351848D1*
X2269236Y13337248D1*
X2264407Y13312989D1*
Y13288731D1*
X2269236Y13269302D1*
X2279007Y13259531D1*
X2293607Y13254702D1*
X2298436D1*
X2312924Y13259531D1*
X2322695Y13269302D1*
X2327524Y13283902D1*
Y13288731D1*
X2322695Y13303331D1*
X2312924Y13312989D1*
X2298436Y13317819D1*
X2293607D1*
X2279007Y13312989D1*
X2269236Y13303331D1*
X2264407Y13288731D1*
X2162505Y12165160D2*
X2206193D1*
X2220793Y12170102D1*
X2225734Y12174931D1*
X2230564Y12184589D1*
Y12194360D1*
X2225734Y12204019D1*
X2220793Y12208960D1*
X2206193Y12213789D1*
X2162505D1*
Y12111702D1*
X2196534Y12165160D2*
X2230564Y12111702D1*
X2281366D2*
X2329995Y12213677D1*
X2261936D1*
X2162561Y11022160D2*
X2206249D1*
X2220849Y11027102D1*
X2225791Y11031931D1*
X2230620Y11041589D1*
Y11051360D1*
X2225791Y11061019D1*
X2220849Y11065960D1*
X2206249Y11070789D1*
X2162561D1*
Y10968702D1*
X2196591Y11022160D2*
X2230620Y10968702D1*
X2286251Y11070677D2*
X2271763Y11065848D1*
X2266822Y11056189D1*
Y11046419D1*
X2271763Y11036760D1*
X2281422Y11031819D1*
X2300851Y11026989D1*
X2315451Y11022160D1*
X2325109Y11012389D1*
X2329939Y11002731D1*
Y10988131D1*
X2325109Y10978472D1*
X2320280Y10973531D1*
X2305680Y10968702D1*
X2286251D1*
X2271763Y10973531D1*
X2266822Y10978472D1*
X2261992Y10988131D1*
Y11002731D1*
X2266822Y11012389D1*
X2276592Y11022160D1*
X2291080Y11026989D1*
X2310509Y11031819D1*
X2320280Y11036760D1*
X2325109Y11046419D1*
Y11056189D1*
X2320280Y11065848D1*
X2305680Y11070677D1*
X2286251D1*
X2164920Y9879160D2*
X2208608D1*
X2223208Y9884102D1*
X2228149Y9888931D1*
X2232978Y9898589D1*
Y9908360D1*
X2228149Y9918019D1*
X2223208Y9922960D1*
X2208608Y9927789D1*
X2164920D1*
Y9825702D1*
X2198949Y9879160D2*
X2232978Y9825702D1*
X2327580Y9893760D2*
X2322639Y9879160D1*
X2312980Y9869389D1*
X2298380Y9864560D1*
X2293551D1*
X2278951Y9869389D1*
X2269292Y9879160D1*
X2264351Y9893760D1*
Y9898589D1*
X2269292Y9913189D1*
X2278951Y9922848D1*
X2293551Y9927677D1*
X2298380D1*
X2312980Y9922848D1*
X2322639Y9913189D1*
X2327580Y9893760D1*
Y9869389D1*
X2322639Y9845131D1*
X2312980Y9830531D1*
X2298380Y9825702D1*
X2288722D1*
X2274122Y9830531D1*
X2269292Y9840302D1*
X2134634Y8736160D2*
X2178321D1*
X2192921Y8741102D1*
X2197863Y8745931D1*
X2202692Y8755589D1*
Y8765360D1*
X2197863Y8775019D1*
X2192921Y8779960D1*
X2178321Y8784789D1*
X2134634D1*
Y8682702D1*
X2168663Y8736160D2*
X2202692Y8682702D1*
X2234065Y8765248D2*
X2243835Y8770189D1*
X2258435Y8784677D1*
Y8682702D1*
X2319008Y8784677D2*
X2304408Y8779848D1*
X2294637Y8765248D1*
X2289808Y8740989D1*
Y8726389D1*
X2294637Y8702131D1*
X2304408Y8687531D1*
X2319008Y8682702D1*
X2328666D1*
X2343266Y8687531D1*
X2352925Y8702131D1*
X2357866Y8726389D1*
Y8740989D1*
X2352925Y8765248D1*
X2343266Y8779848D1*
X2328666Y8784677D1*
X2319008D1*
X2352925Y8765248D2*
X2294637Y8702131D1*
X2156477Y7593160D2*
X2200165D1*
X2214765Y7598102D1*
X2219707Y7602931D1*
X2224536Y7612589D1*
Y7622360D1*
X2219707Y7632019D1*
X2214765Y7636960D1*
X2200165Y7641789D1*
X2156477D1*
Y7539702D1*
X2190507Y7593160D2*
X2224536Y7539702D1*
X2255908Y7622248D2*
X2265679Y7627189D1*
X2280279Y7641677D1*
Y7539702D1*
X2311652Y7622248D2*
X2321423Y7627189D1*
X2336023Y7641677D1*
Y7539702D1*
X2134634Y6450160D2*
X2178321D1*
X2192921Y6455102D1*
X2197863Y6459931D1*
X2202692Y6469589D1*
Y6479360D1*
X2197863Y6489019D1*
X2192921Y6493960D1*
X2178321Y6498789D1*
X2134634D1*
Y6396702D1*
X2168663Y6450160D2*
X2202692Y6396702D1*
X2234065Y6479248D2*
X2243835Y6484189D1*
X2258435Y6498677D1*
Y6396702D1*
X2294749Y6474419D2*
Y6479248D1*
X2299579Y6489019D1*
X2304408Y6493848D1*
X2314179Y6498677D1*
X2333608D1*
X2343266Y6493848D1*
X2348096Y6489019D1*
X2353037Y6479248D1*
Y6469589D1*
X2348096Y6459819D1*
X2338437Y6445331D1*
X2289808Y6396702D1*
X2357866D1*
X2134634Y5307160D2*
X2178321D1*
X2192921Y5312102D1*
X2197863Y5316931D1*
X2202692Y5326589D1*
Y5336360D1*
X2197863Y5346019D1*
X2192921Y5350960D1*
X2178321Y5355789D1*
X2134634D1*
Y5253702D1*
X2168663Y5307160D2*
X2202692Y5253702D1*
X2234065Y5336248D2*
X2243835Y5341189D1*
X2258435Y5355677D1*
Y5253702D1*
X2299579Y5355677D2*
X2352925D1*
X2323837Y5316819D1*
X2338437D1*
X2348096Y5311989D1*
X2352925Y5307160D1*
X2357866Y5292560D1*
Y5282902D1*
X2352925Y5268302D1*
X2343266Y5258531D1*
X2328666Y5253702D1*
X2314066D1*
X2299579Y5258531D1*
X2294749Y5263472D1*
X2289808Y5273131D1*
X2132219Y4164160D2*
X2175907D1*
X2190507Y4169102D1*
X2195448Y4173931D1*
X2200277Y4183589D1*
Y4193360D1*
X2195448Y4203019D1*
X2190507Y4207960D1*
X2175907Y4212789D1*
X2132219D1*
Y4110702D1*
X2166248Y4164160D2*
X2200277Y4110702D1*
X2231650Y4193248D2*
X2241421Y4198189D1*
X2256021Y4212677D1*
Y4110702D1*
X2336023D2*
Y4212677D1*
X2287393Y4144731D1*
X2360281D1*
X2134634Y3021160D2*
X2178321D1*
X2192921Y3026102D1*
X2197863Y3030931D1*
X2202692Y3040589D1*
Y3050360D1*
X2197863Y3060019D1*
X2192921Y3064960D1*
X2178321Y3069789D1*
X2134634D1*
Y2967702D1*
X2168663Y3021160D2*
X2202692Y2967702D1*
X2234065Y3050248D2*
X2243835Y3055189D1*
X2258435Y3069677D1*
Y2967702D1*
X2348096Y3069677D2*
X2299579D1*
X2294749Y3025989D1*
X2299579Y3030819D1*
X2314179Y3035760D1*
X2328666D1*
X2343266Y3030819D1*
X2353037Y3021160D1*
X2357866Y3006560D1*
Y2996902D1*
X2353037Y2982302D1*
X2343266Y2972531D1*
X2328666Y2967702D1*
X2314179D1*
X2299579Y2972531D1*
X2294749Y2977472D1*
X2289808Y2987131D1*
X2137104Y1878160D2*
X2180792D1*
X2195392Y1883102D1*
X2200334Y1887931D1*
X2205163Y1897589D1*
Y1907360D1*
X2200334Y1917019D1*
X2195392Y1921960D1*
X2180792Y1926789D1*
X2137104D1*
Y1824702D1*
X2171134Y1878160D2*
X2205163Y1824702D1*
X2236535Y1907248D2*
X2246306Y1912189D1*
X2260906Y1926677D1*
Y1824702D1*
X2350566Y1912189D2*
X2345737Y1921848D1*
X2331137Y1926677D1*
X2321479D1*
X2306879Y1921848D1*
X2297108Y1907248D1*
X2292279Y1882989D1*
Y1858731D1*
X2297108Y1839302D1*
X2306879Y1829531D1*
X2321479Y1824702D1*
X2326308D1*
X2340796Y1829531D1*
X2350566Y1839302D1*
X2355396Y1853902D1*
Y1858731D1*
X2350566Y1873331D1*
X2340796Y1882989D1*
X2326308Y1887819D1*
X2321479D1*
X2306879Y1882989D1*
X2297108Y1873331D1*
X2292279Y1858731D1*
X4329589Y18557384D2*
Y18601072D1*
X4324648Y18615672D1*
X4319819Y18620613D1*
X4310160Y18625442D1*
X4300389D1*
X4290731Y18620613D1*
X4285789Y18615672D1*
X4280960Y18601072D1*
Y18557384D1*
X4383048D1*
X4329589Y18591413D2*
X4383048Y18625442D1*
X4300502Y18656815D2*
X4295560Y18666586D1*
X4281073Y18681186D1*
X4383048Y18681185D1*
Y18731987D2*
X4281073Y18780616D1*
Y18712558D1*
X4082840Y17414440D2*
Y17458128D1*
X4077899Y17472728D1*
X4073069Y17477669D1*
X4063411Y17482498D1*
X4053640D1*
X4043982Y17477669D1*
X4039040Y17472728D1*
X4034211Y17458128D1*
Y17414440D1*
X4136298D1*
X4082840Y17448469D2*
X4136299Y17482498D1*
X4053752Y17513871D2*
X4048811Y17523642D1*
X4034323Y17538242D1*
X4136298D1*
X4034323Y17593873D2*
X4039152Y17579385D1*
X4048811Y17574443D1*
X4058582D1*
X4068240Y17579385D1*
X4073182Y17589043D1*
X4078011Y17608473D1*
X4082840Y17623073D1*
X4092611Y17632731D1*
X4102269Y17637560D1*
X4116869D1*
X4126528Y17632731D1*
X4131469Y17627902D1*
X4136298Y17613302D1*
Y17593873D1*
X4131469Y17579385D1*
X4126528Y17574443D1*
X4116869Y17569614D1*
X4102269D1*
X4092611Y17574443D1*
X4082840Y17584214D1*
X4078011Y17598702D1*
X4073182Y17618131D1*
X4068240Y17627902D1*
X4058582Y17632731D1*
X4048811D1*
X4039152Y17627902D1*
X4034323Y17613302D1*
Y17593873D1*
X4329589Y16273799D2*
Y16317486D1*
X4324648Y16332086D1*
X4319819Y16337028D1*
X4310160Y16341857D1*
X4300389D1*
X4290731Y16337028D1*
X4285789Y16332086D1*
X4280960Y16317486D1*
Y16273799D1*
X4383048D1*
X4329589Y16307828D2*
X4383048Y16341857D1*
X4300502Y16373229D2*
X4295560Y16383000D1*
X4281073Y16397600D1*
X4383048D1*
X4314989Y16492202D2*
X4329589Y16487260D1*
X4339360Y16477602D1*
X4344189Y16463002D1*
Y16458173D1*
X4339360Y16443573D1*
X4329589Y16433914D1*
X4314989Y16428973D1*
X4310160D1*
X4295560Y16433914D1*
X4285902Y16443573D1*
X4281073Y16458173D1*
Y16463002D1*
X4285902Y16477602D1*
X4295560Y16487260D1*
X4314989Y16492202D1*
X4339360D1*
X4363619Y16487260D1*
X4378219Y16477602D1*
X4383048Y16463002D1*
Y16453343D1*
X4378219Y16438743D1*
X4368448Y16433914D1*
X4082840Y15106540D2*
Y15150228D1*
X4077899Y15164828D1*
X4073069Y15169769D1*
X4063411Y15174598D1*
X4053640D1*
X4043982Y15169769D1*
X4039040Y15164828D1*
X4034211Y15150228D1*
Y15106540D1*
X4136298D1*
X4082840Y15140569D2*
X4136299Y15174598D1*
X4058582Y15210912D2*
X4053752D1*
X4043982Y15215742D1*
X4039152Y15220571D1*
X4034323Y15230342D1*
Y15249771D1*
X4039152Y15259429D1*
X4043982Y15264259D1*
X4053752Y15269200D1*
X4063411D1*
X4073182Y15264259D1*
X4087669Y15254600D1*
X4136299Y15205971D1*
X4136298Y15274029D1*
X4034323Y15334602D2*
X4039152Y15320002D1*
X4053752Y15310231D1*
X4078011Y15305402D1*
X4092611D1*
X4116869Y15310231D1*
X4131469Y15320002D1*
X4136298Y15334602D1*
Y15344260D1*
X4131469Y15358860D1*
X4116869Y15368519D1*
X4092611Y15373460D1*
X4078011D1*
X4053752Y15368519D1*
X4039152Y15358860D1*
X4034323Y15344260D1*
Y15334602D1*
X4053752Y15368519D2*
X4116869Y15310231D1*
X4329589Y13985384D2*
Y14029072D1*
X4324648Y14043672D1*
X4319819Y14048613D1*
X4310160Y14053442D1*
X4300389D1*
X4290731Y14048613D1*
X4285789Y14043672D1*
X4280960Y14029072D1*
Y13985384D1*
X4383048D1*
X4329589Y14019413D2*
X4383048Y14053442D1*
X4305331Y14089756D2*
X4300502D1*
X4290731Y14094586D1*
X4285902Y14099415D1*
X4281073Y14109186D1*
Y14128615D1*
X4285902Y14138273D1*
X4290731Y14143102D1*
X4300502Y14148044D1*
X4310160D1*
X4319931Y14143102D1*
X4334419Y14133444D1*
X4383048Y14084815D1*
Y14152873D1*
X4300502Y14184246D2*
X4295560Y14194016D1*
X4281073Y14208616D1*
X4383048D1*
X4082840Y12820540D2*
Y12864228D1*
X4077899Y12878828D1*
X4073069Y12883769D1*
X4063411Y12888598D1*
X4053640D1*
X4043982Y12883769D1*
X4039040Y12878828D1*
X4034211Y12864228D1*
Y12820540D1*
X4136298D1*
X4082840Y12854569D2*
X4136299Y12888598D1*
X4058582Y12924912D2*
X4053752D1*
X4043982Y12929742D1*
X4039152Y12934571D1*
X4034323Y12944342D1*
Y12963771D1*
X4039152Y12973429D1*
X4043982Y12978259D1*
X4053752Y12983200D1*
X4063411D1*
X4073182Y12978259D1*
X4087669Y12968600D1*
X4136299Y12919971D1*
X4136298Y12988029D1*
X4058582Y13024343D2*
X4053752D1*
X4043982Y13029173D1*
X4039152Y13034002D1*
X4034323Y13043773D1*
Y13063202D1*
X4039152Y13072860D1*
X4043982Y13077690D1*
X4053752Y13082631D1*
X4063411D1*
X4073182Y13077690D1*
X4087669Y13068031D1*
X4136298Y13019402D1*
Y13087460D1*
X4329589Y11677540D2*
Y11721228D1*
X4324648Y11735828D1*
X4319819Y11740769D1*
X4310160Y11745598D1*
X4300389D1*
X4290731Y11740769D1*
X4285789Y11735828D1*
X4280960Y11721228D1*
Y11677540D1*
X4383048D1*
X4329589Y11711569D2*
X4383048Y11745598D1*
X4305331Y11781912D2*
X4300502D1*
X4290731Y11786742D1*
X4285902Y11791571D1*
X4281073Y11801342D1*
Y11820771D1*
X4285902Y11830429D1*
X4290731Y11835259D1*
X4300502Y11840200D1*
X4310160D1*
X4319931Y11835259D1*
X4334419Y11825600D1*
X4383048Y11776971D1*
Y11845029D1*
X4281073Y11886173D2*
Y11939519D1*
X4319931Y11910431D1*
Y11925031D1*
X4324760Y11934690D1*
X4329589Y11939519D1*
X4344189Y11944460D1*
X4353848D1*
X4368448Y11939519D1*
X4378219Y11929860D1*
X4383048Y11915260D1*
Y11900660D1*
X4378219Y11886173D1*
X4373277Y11881343D1*
X4363619Y11876402D1*
X4082840Y10532125D2*
Y10575813D1*
X4077899Y10590413D1*
X4073069Y10595355D1*
X4063411Y10600184D1*
X4053640D1*
X4043982Y10595355D1*
X4039040Y10590413D1*
X4034211Y10575813D1*
Y10532125D1*
X4136298D1*
X4082840Y10566155D2*
X4136299Y10600184D1*
X4058582Y10636498D2*
X4053752D1*
X4043982Y10641327D1*
X4039152Y10646156D1*
X4034323Y10655927D1*
Y10675356D1*
X4039152Y10685015D1*
X4043982Y10689844D1*
X4053752Y10694786D1*
X4063411Y10694785D1*
X4073182Y10689844D1*
X4087669Y10680185D1*
X4136299Y10631556D1*
X4136298Y10699615D1*
Y10779616D2*
X4034323D1*
X4102269Y10730987D1*
Y10803875D1*
X4329589Y9391540D2*
Y9435228D1*
X4324648Y9449828D1*
X4319819Y9454769D1*
X4310160Y9459598D1*
X4300389D1*
X4290731Y9454769D1*
X4285789Y9449828D1*
X4280960Y9435228D1*
Y9391540D1*
X4383048D1*
X4329589Y9425569D2*
X4383048Y9459598D1*
X4305331Y9495912D2*
X4300502D1*
X4290731Y9500742D1*
X4285902Y9505571D1*
X4281073Y9515342D1*
Y9534771D1*
X4285902Y9544429D1*
X4290731Y9549259D1*
X4300502Y9554200D1*
X4310160D1*
X4319931Y9549259D1*
X4334419Y9539600D1*
X4383048Y9490971D1*
Y9559029D1*
X4281073Y9648690D2*
Y9600173D1*
X4324760Y9595343D1*
X4319931Y9600173D1*
X4314989Y9614773D1*
Y9629260D1*
X4319931Y9643860D1*
X4329589Y9653631D1*
X4344189Y9658460D1*
X4353848D1*
X4368448Y9653631D1*
X4378219Y9643860D1*
X4383048Y9629260D1*
Y9614773D1*
X4378219Y9600173D1*
X4373277Y9595343D1*
X4363619Y9590402D1*
X4082840Y8251011D2*
Y8294698D1*
X4077899Y8309298D1*
X4073069Y8314240D1*
X4063411Y8319069D1*
X4053640D1*
X4043982Y8314240D1*
X4039040Y8309299D1*
X4034211Y8294699D1*
Y8251011D1*
X4136298D1*
X4082840Y8285040D2*
X4136299Y8319069D1*
X4058582Y8355383D2*
X4053752D1*
X4043982Y8360213D1*
X4039152Y8365042D1*
X4034323Y8374812D1*
Y8394242D1*
X4039152Y8403900D1*
X4043982Y8408729D1*
X4053752Y8413671D1*
X4063411D1*
X4073182Y8408729D1*
X4087669Y8399071D1*
X4136299Y8350442D1*
X4136298Y8418500D1*
X4048811Y8508160D2*
X4039152Y8503331D1*
X4034323Y8488731D1*
Y8479073D1*
X4039152Y8464473D1*
X4053752Y8454702D1*
X4078011Y8449873D1*
X4102269D1*
X4121698Y8454702D1*
X4131469Y8464473D1*
X4136298Y8479073D1*
Y8483902D1*
X4131469Y8498389D1*
X4121698Y8508160D1*
X4107098Y8512989D1*
X4102269D1*
X4087669Y8508160D1*
X4078011Y8498390D1*
X4073182Y8483902D1*
Y8479073D1*
X4078011Y8464473D1*
X4087669Y8454702D1*
X4102269Y8449873D1*
X4329589Y7112440D2*
Y7156128D1*
X4324648Y7170728D1*
X4319819Y7175669D1*
X4310160Y7180498D1*
X4300389D1*
X4290731Y7175669D1*
X4285789Y7170728D1*
X4280960Y7156128D1*
Y7112440D1*
X4383048D1*
X4329589Y7146469D2*
X4383048Y7180498D1*
X4305331Y7216812D2*
X4300502D1*
X4290731Y7221642D1*
X4285902Y7226471D1*
X4281073Y7236242D1*
Y7255671D1*
X4285902Y7265329D1*
X4290731Y7270159D1*
X4300502Y7275100D1*
X4310160D1*
X4319931Y7270159D1*
X4334419Y7260500D1*
X4383048Y7211871D1*
Y7279929D1*
Y7330731D2*
X4281073Y7379360D1*
Y7311302D1*
X4082840Y5962596D2*
Y6006284D1*
X4077899Y6020884D1*
X4073069Y6025825D1*
X4063411Y6030655D1*
X4053640D1*
X4043982Y6025825D1*
X4039040Y6020884D1*
X4034211Y6006284D1*
Y5962596D1*
X4136298D1*
X4082840Y5996625D2*
X4136299Y6030654D1*
X4058582Y6066969D2*
X4053752D1*
X4043982Y6071798D1*
X4039152Y6076627D1*
X4034323Y6086398D1*
Y6105827D1*
X4039152Y6115486D1*
X4043982Y6120315D1*
X4053752Y6125256D1*
X4063411D1*
X4073182Y6120315D1*
X4087669Y6110656D1*
X4136299Y6062027D1*
X4136298Y6130085D1*
X4034323Y6185716D2*
X4039152Y6171229D1*
X4048811Y6166287D1*
X4058582D1*
X4068240Y6171229D1*
X4073182Y6180887D1*
X4078011Y6200316D1*
X4082840Y6214916D1*
X4092611Y6224575D1*
X4102269Y6229404D1*
X4116869D1*
X4126528Y6224575D1*
X4131469Y6219746D1*
X4136298Y6205146D1*
Y6185716D1*
X4131469Y6171229D1*
X4126528Y6166287D1*
X4116869Y6161458D1*
X4102269D1*
X4092611Y6166287D1*
X4082840Y6176058D1*
X4078011Y6190546D1*
X4073182Y6209975D1*
X4068240Y6219746D1*
X4058582Y6224575D1*
X4048811D1*
X4039152Y6219746D1*
X4034323Y6205146D1*
Y6185716D1*
X4329589Y4821955D2*
Y4865642D1*
X4324648Y4880242D1*
X4319819Y4885184D1*
X4310160Y4890013D1*
X4300389D1*
X4290731Y4885184D1*
X4285789Y4880242D1*
X4280960Y4865642D1*
Y4821955D1*
X4383048D1*
X4329589Y4855984D2*
X4383048Y4890013D1*
X4305331Y4926327D2*
X4300502D1*
X4290731Y4931156D1*
X4285902Y4935986D1*
X4281073Y4945756D1*
Y4965186D1*
X4285902Y4974844D1*
X4290731Y4979673D1*
X4300502Y4984615D1*
X4310160D1*
X4319931Y4979673D1*
X4334419Y4970015D1*
X4383048Y4921385D1*
Y4989444D1*
X4314989Y5084046D2*
X4329589Y5079104D1*
X4339360Y5069446D1*
X4344189Y5054846D1*
Y5050016D1*
X4339360Y5035416D1*
X4329589Y5025758D1*
X4314989Y5020816D1*
X4310160D1*
X4295560Y5025758D1*
X4285902Y5035416D1*
X4281073Y5050016D1*
Y5054846D1*
X4285902Y5069446D1*
X4295560Y5079104D1*
X4314989Y5084046D1*
X4339360D1*
X4363619Y5079104D1*
X4378219Y5069446D1*
X4383048Y5054846D1*
Y5045187D1*
X4378219Y5030587D1*
X4368448Y5025758D1*
X4082840Y3676540D2*
Y3720228D1*
X4077899Y3734828D1*
X4073069Y3739769D1*
X4063411Y3744598D1*
X4053640D1*
X4043982Y3739769D1*
X4039040Y3734828D1*
X4034211Y3720228D1*
Y3676540D1*
X4136298D1*
X4082840Y3710569D2*
X4136299Y3744598D1*
X4034323Y3785742D2*
Y3839088D1*
X4073182Y3810000D1*
Y3824600D1*
X4078011Y3834259D1*
X4082840Y3839088D1*
X4097440Y3844029D1*
X4107099D1*
X4121699Y3839088D1*
X4131469Y3829429D1*
X4136298Y3814829D1*
Y3800229D1*
X4131469Y3785742D1*
X4126528Y3780912D1*
X4116869Y3775971D1*
X4034323Y3904602D2*
X4039152Y3890002D1*
X4053752Y3880231D1*
X4078011Y3875402D1*
X4092611D1*
X4116869Y3880231D1*
X4131469Y3890002D1*
X4136298Y3904602D1*
Y3914260D1*
X4131469Y3928860D1*
X4116869Y3938519D1*
X4092611Y3943460D1*
X4078011D1*
X4053752Y3938519D1*
X4039152Y3928860D1*
X4034323Y3914260D1*
Y3904602D1*
X4053752Y3938519D2*
X4116869Y3880231D1*
X4329589Y2555384D2*
Y2599072D1*
X4324648Y2613672D1*
X4319819Y2618613D1*
X4310160Y2623442D1*
X4300389D1*
X4290731Y2618613D1*
X4285789Y2613672D1*
X4280960Y2599072D1*
Y2555384D1*
X4383048D1*
X4329589Y2589413D2*
X4383048Y2623442D1*
X4281073Y2664586D2*
Y2717932D1*
X4319931Y2688844D1*
Y2703444D1*
X4324760Y2713102D1*
X4329589Y2717932D1*
X4344189Y2722873D1*
X4353848D1*
X4368448Y2717932D1*
X4378219Y2708273D1*
X4383048Y2693673D1*
Y2679073D1*
X4378219Y2664585D1*
X4373277Y2659756D1*
X4363619Y2654815D1*
X4300502Y2754246D2*
X4295560Y2764016D1*
X4281073Y2778616D1*
X4383048D1*
X4082840Y1390540D2*
Y1434228D1*
X4077899Y1448828D1*
X4073069Y1453769D1*
X4063411Y1458598D1*
X4053640D1*
X4043982Y1453769D1*
X4039040Y1448828D1*
X4034211Y1434228D1*
Y1390540D1*
X4136298D1*
X4082840Y1424569D2*
X4136299Y1458598D1*
X4034323Y1499742D2*
Y1553088D1*
X4073182Y1524000D1*
Y1538600D1*
X4078011Y1548259D1*
X4082840Y1553088D1*
X4097440Y1558029D1*
X4107099D1*
X4121699Y1553088D1*
X4131469Y1543429D1*
X4136298Y1528829D1*
Y1514229D1*
X4131469Y1499742D1*
X4126528Y1494912D1*
X4116869Y1489971D1*
X4058582Y1594343D2*
X4053752D1*
X4043982Y1599173D1*
X4039152Y1604002D1*
X4034323Y1613773D1*
Y1633202D1*
X4039152Y1642860D1*
X4043982Y1647690D1*
X4053752Y1652631D1*
X4063411D1*
X4073182Y1647690D1*
X4087669Y1638031D1*
X4136298Y1589402D1*
Y1657460D1*
X3236225Y19077789D2*
X3275084Y18975702D1*
X3313942Y19077789D1*
X3374515D2*
X3364744Y19072960D1*
X3355085Y19063189D1*
X3350144Y19053531D1*
X3345315Y19038931D1*
Y19014560D1*
X3350144Y19000072D1*
X3355085Y18990302D1*
X3364744Y18980643D1*
X3374515Y18975702D1*
X3393944D1*
X3403602Y18980643D1*
X3413373Y18990302D1*
X3418202Y19000072D1*
X3423032Y19014560D1*
Y19038931D1*
X3418202Y19053531D1*
X3413373Y19063189D1*
X3403602Y19072960D1*
X3393944Y19077789D1*
X3374515D1*
X3454404Y19058248D2*
X3464175Y19063189D1*
X3478775Y19077677D1*
Y18975702D1*
X3214381Y17934789D2*
X3253240Y17832702D1*
X3292098Y17934789D1*
X3352671D2*
X3342900Y17929960D1*
X3333242Y17920189D1*
X3328300Y17910531D1*
X3323471Y17895931D1*
Y17871560D1*
X3328300Y17857072D1*
X3333242Y17847302D1*
X3342900Y17837643D1*
X3352671Y17832702D1*
X3372100D1*
X3381758Y17837643D1*
X3391529Y17847302D1*
X3396358Y17857072D1*
X3401188Y17871560D1*
Y17895931D1*
X3396358Y17910531D1*
X3391529Y17920189D1*
X3381758Y17929960D1*
X3372100Y17934789D1*
X3352671D1*
X3437502Y17910419D2*
Y17915248D1*
X3442331Y17925019D1*
X3447160Y17929848D1*
X3456931Y17934677D1*
X3476360D1*
X3486019Y17929848D1*
X3490848Y17925019D1*
X3495789Y17915248D1*
Y17905589D1*
X3490848Y17895819D1*
X3481189Y17881331D1*
X3432560Y17832702D1*
X3500619D1*
X3214381Y16791789D2*
X3253240Y16689702D1*
X3292098Y16791789D1*
X3352671D2*
X3342900Y16786960D1*
X3333242Y16777189D1*
X3328300Y16767531D1*
X3323471Y16752931D1*
Y16728560D1*
X3328300Y16714072D1*
X3333242Y16704302D1*
X3342900Y16694643D1*
X3352671Y16689702D1*
X3372100D1*
X3381758Y16694643D1*
X3391529Y16704302D1*
X3396358Y16714072D1*
X3401188Y16728560D1*
Y16752931D1*
X3396358Y16767531D1*
X3391529Y16777189D1*
X3381758Y16786960D1*
X3372100Y16791789D1*
X3352671D1*
X3442331Y16791677D2*
X3495677D1*
X3466589Y16752819D1*
X3481189D1*
X3490848Y16747989D1*
X3495677Y16743160D1*
X3500619Y16728560D1*
Y16718902D1*
X3495677Y16704302D1*
X3486019Y16694531D1*
X3471419Y16689702D1*
X3456819D1*
X3442331Y16694531D1*
X3437502Y16699472D1*
X3432560Y16709131D1*
X3211967Y15648789D2*
X3250825Y15546702D1*
X3289684Y15648789D1*
X3350256D2*
X3340485Y15643960D1*
X3330827Y15634189D1*
X3325885Y15624531D1*
X3321056Y15609931D1*
Y15585560D1*
X3325885Y15571072D1*
X3330827Y15561302D1*
X3340485Y15551643D1*
X3350256Y15546702D1*
X3369685D1*
X3379344Y15551643D1*
X3389115Y15561302D1*
X3393944Y15571072D1*
X3398773Y15585560D1*
Y15609931D1*
X3393944Y15624531D1*
X3389115Y15634189D1*
X3379344Y15643960D1*
X3369685Y15648789D1*
X3350256D1*
X3478775Y15546702D2*
Y15648677D1*
X3430146Y15580731D1*
X3503033D1*
X3214381Y14505789D2*
X3253240Y14403702D1*
X3292098Y14505789D1*
X3352671D2*
X3342900Y14500960D1*
X3333242Y14491189D1*
X3328300Y14481531D1*
X3323471Y14466931D1*
Y14442560D1*
X3328300Y14428072D1*
X3333242Y14418302D1*
X3342900Y14408643D1*
X3352671Y14403702D1*
X3372100D1*
X3381758Y14408643D1*
X3391529Y14418302D1*
X3396358Y14428072D1*
X3401188Y14442560D1*
Y14466931D1*
X3396358Y14481531D1*
X3391529Y14491189D1*
X3381758Y14500960D1*
X3372100Y14505789D1*
X3352671D1*
X3490848Y14505677D2*
X3442331D1*
X3437502Y14461989D1*
X3442331Y14466819D1*
X3456931Y14471760D1*
X3471419D1*
X3486019Y14466819D1*
X3495789Y14457160D1*
X3500619Y14442560D1*
Y14432902D1*
X3495789Y14418302D1*
X3486019Y14408531D1*
X3471419Y14403702D1*
X3456931D1*
X3442331Y14408531D1*
X3437502Y14413472D1*
X3432560Y14423131D1*
X3216852Y13362789D2*
X3255711Y13260702D1*
X3294569Y13362789D1*
X3355142D2*
X3345371Y13357960D1*
X3335712Y13348189D1*
X3330771Y13338531D1*
X3325942Y13323931D1*
Y13299560D1*
X3330771Y13285072D1*
X3335712Y13275302D1*
X3345371Y13265643D1*
X3355142Y13260702D1*
X3374571D1*
X3384229Y13265643D1*
X3394000Y13275302D1*
X3398829Y13285072D1*
X3403658Y13299560D1*
Y13323931D1*
X3398829Y13338531D1*
X3394000Y13348189D1*
X3384229Y13357960D1*
X3374571Y13362789D1*
X3355142D1*
X3493319Y13348189D2*
X3488489Y13357848D1*
X3473889Y13362677D1*
X3464231D1*
X3449631Y13357848D1*
X3439860Y13343248D1*
X3435031Y13318989D1*
Y13294731D1*
X3439860Y13275302D1*
X3449631Y13265531D1*
X3464231Y13260702D1*
X3469060D1*
X3483548Y13265531D1*
X3493319Y13275302D1*
X3498148Y13289902D1*
Y13294731D1*
X3493319Y13309331D1*
X3483548Y13318989D1*
X3469060Y13323819D1*
X3464231D1*
X3449631Y13318989D1*
X3439860Y13309331D1*
X3435031Y13294731D1*
X3214381Y12219789D2*
X3253240Y12117702D1*
X3292098Y12219789D1*
X3352671D2*
X3342900Y12214960D1*
X3333242Y12205189D1*
X3328300Y12195531D1*
X3323471Y12180931D1*
Y12156560D1*
X3328300Y12142072D1*
X3333242Y12132302D1*
X3342900Y12122643D1*
X3352671Y12117702D1*
X3372100D1*
X3381758Y12122643D1*
X3391529Y12132302D1*
X3396358Y12142072D1*
X3401188Y12156560D1*
Y12180931D1*
X3396358Y12195531D1*
X3391529Y12205189D1*
X3381758Y12214960D1*
X3372100Y12219789D1*
X3352671D1*
X3451989Y12117702D2*
X3500619Y12219677D1*
X3432560D1*
X3214437Y11076789D2*
X3253296Y10974702D1*
X3292154Y11076789D1*
X3352727D2*
X3342956Y11071960D1*
X3333298Y11062189D1*
X3328356Y11052531D1*
X3323527Y11037931D1*
Y11013560D1*
X3328356Y10999072D1*
X3333298Y10989302D1*
X3342956Y10979643D1*
X3352727Y10974702D1*
X3372156D1*
X3381815Y10979643D1*
X3391585Y10989302D1*
X3396415Y10999072D1*
X3401244Y11013560D1*
Y11037931D1*
X3396415Y11052531D1*
X3391585Y11062189D1*
X3381815Y11071960D1*
X3372156Y11076789D1*
X3352727D1*
X3456875Y11076677D2*
X3442387Y11071848D1*
X3437446Y11062189D1*
Y11052419D1*
X3442387Y11042760D1*
X3452046Y11037819D1*
X3471475Y11032989D1*
X3486075Y11028160D1*
X3495733Y11018389D1*
X3500563Y11008731D1*
Y10994131D1*
X3495733Y10984472D1*
X3490904Y10979531D1*
X3476304Y10974702D1*
X3456875D1*
X3442387Y10979531D1*
X3437446Y10984472D1*
X3432616Y10994131D1*
Y11008731D1*
X3437446Y11018389D1*
X3447216Y11028160D1*
X3461704Y11032989D1*
X3481133Y11037819D1*
X3490904Y11042760D1*
X3495733Y11052419D1*
Y11062189D1*
X3490904Y11071848D1*
X3476304Y11076677D1*
X3456875D1*
X3216796Y9933789D2*
X3255654Y9831702D1*
X3294513Y9933789D1*
X3355085D2*
X3345315Y9928960D1*
X3335656Y9919189D1*
X3330715Y9909531D1*
X3325885Y9894931D1*
Y9870560D1*
X3330715Y9856072D1*
X3335656Y9846302D1*
X3345315Y9836643D1*
X3355085Y9831702D1*
X3374515D1*
X3384173Y9836643D1*
X3393944Y9846302D1*
X3398773Y9856072D1*
X3403602Y9870560D1*
Y9894931D1*
X3398773Y9909531D1*
X3393944Y9919189D1*
X3384173Y9928960D1*
X3374515Y9933789D1*
X3355085D1*
X3498204Y9899760D2*
X3493263Y9885160D1*
X3483604Y9875389D1*
X3469004Y9870560D1*
X3464175D1*
X3449575Y9875389D1*
X3439916Y9885160D1*
X3434975Y9899760D1*
Y9904589D1*
X3439916Y9919189D1*
X3449575Y9928848D1*
X3464175Y9933677D1*
X3469004D1*
X3483604Y9928848D1*
X3493263Y9919189D1*
X3498204Y9899760D1*
Y9875389D1*
X3493263Y9851131D1*
X3483604Y9836531D1*
X3469004Y9831702D1*
X3459346D1*
X3444746Y9836531D1*
X3439916Y9846302D1*
X3186510Y8790789D2*
X3225368Y8688702D1*
X3264227Y8790789D1*
X3324799D2*
X3315028Y8785960D1*
X3305370Y8776189D1*
X3300428Y8766531D1*
X3295599Y8751931D1*
Y8727560D1*
X3300428Y8713072D1*
X3305370Y8703302D1*
X3315028Y8693643D1*
X3324799Y8688702D1*
X3344228D1*
X3353887Y8693643D1*
X3363658Y8703302D1*
X3368487Y8713072D1*
X3373316Y8727560D1*
Y8751931D1*
X3368487Y8766531D1*
X3363658Y8776189D1*
X3353887Y8785960D1*
X3344228Y8790789D1*
X3324799D1*
X3404689Y8771248D2*
X3414459Y8776189D1*
X3429059Y8790677D1*
Y8688702D1*
X3489632Y8790677D2*
X3475032Y8785848D1*
X3465261Y8771248D1*
X3460432Y8746989D1*
Y8732389D1*
X3465261Y8708131D1*
X3475032Y8693531D1*
X3489632Y8688702D1*
X3499290D1*
X3513890Y8693531D1*
X3523549Y8708131D1*
X3528490Y8732389D1*
Y8746989D1*
X3523549Y8771248D1*
X3513890Y8785848D1*
X3499290Y8790677D1*
X3489632D1*
X3523549Y8771248D2*
X3465261Y8708131D1*
X3208353Y7647789D2*
X3247212Y7545702D1*
X3286070Y7647789D1*
X3346643D2*
X3336872Y7642960D1*
X3327214Y7633189D1*
X3322272Y7623531D1*
X3317443Y7608931D1*
Y7584560D1*
X3322272Y7570072D1*
X3327214Y7560302D1*
X3336872Y7550643D1*
X3346643Y7545702D1*
X3366072D1*
X3375731Y7550643D1*
X3385501Y7560302D1*
X3390331Y7570072D1*
X3395160Y7584560D1*
Y7608931D1*
X3390331Y7623531D1*
X3385501Y7633189D1*
X3375731Y7642960D1*
X3366072Y7647789D1*
X3346643D1*
X3426532Y7628248D2*
X3436303Y7633189D1*
X3450903Y7647677D1*
Y7545702D1*
X3482276Y7628248D2*
X3492047Y7633189D1*
X3506647Y7647677D1*
Y7545702D1*
X3186510Y6504789D2*
X3225368Y6402702D1*
X3264227Y6504789D1*
X3324799D2*
X3315028Y6499960D1*
X3305370Y6490189D1*
X3300428Y6480531D1*
X3295599Y6465931D1*
Y6441560D1*
X3300428Y6427072D1*
X3305370Y6417302D1*
X3315028Y6407643D1*
X3324799Y6402702D1*
X3344228D1*
X3353887Y6407643D1*
X3363658Y6417302D1*
X3368487Y6427072D1*
X3373316Y6441560D1*
Y6465931D1*
X3368487Y6480531D1*
X3363658Y6490189D1*
X3353887Y6499960D1*
X3344228Y6504789D1*
X3324799D1*
X3404689Y6485248D2*
X3414459Y6490189D1*
X3429059Y6504677D1*
Y6402702D1*
X3465373Y6480419D2*
Y6485248D1*
X3470203Y6495019D1*
X3475032Y6499848D1*
X3484803Y6504677D1*
X3504232D1*
X3513890Y6499848D1*
X3518720Y6495019D1*
X3523661Y6485248D1*
Y6475589D1*
X3518720Y6465819D1*
X3509061Y6451331D1*
X3460432Y6402702D1*
X3528490D1*
X3186510Y5361789D2*
X3225368Y5259702D1*
X3264227Y5361789D1*
X3324799D2*
X3315028Y5356960D1*
X3305370Y5347189D1*
X3300428Y5337531D1*
X3295599Y5322931D1*
Y5298560D1*
X3300428Y5284072D1*
X3305370Y5274302D1*
X3315028Y5264643D1*
X3324799Y5259702D1*
X3344228D1*
X3353887Y5264643D1*
X3363658Y5274302D1*
X3368487Y5284072D1*
X3373316Y5298560D1*
Y5322931D1*
X3368487Y5337531D1*
X3363658Y5347189D1*
X3353887Y5356960D1*
X3344228Y5361789D1*
X3324799D1*
X3404689Y5342248D2*
X3414459Y5347189D1*
X3429059Y5361677D1*
Y5259702D1*
X3470203Y5361677D2*
X3523549D1*
X3494461Y5322819D1*
X3509061D1*
X3518720Y5317989D1*
X3523549Y5313160D1*
X3528490Y5298560D1*
Y5288902D1*
X3523549Y5274302D1*
X3513890Y5264531D1*
X3499290Y5259702D1*
X3484690D1*
X3470203Y5264531D1*
X3465373Y5269472D1*
X3460432Y5279131D1*
X3184095Y4218789D2*
X3222953Y4116702D1*
X3261812Y4218789D1*
X3322384D2*
X3312614Y4213960D1*
X3302955Y4204189D1*
X3298014Y4194531D1*
X3293184Y4179931D1*
Y4155560D1*
X3298014Y4141072D1*
X3302955Y4131302D1*
X3312614Y4121643D1*
X3322384Y4116702D1*
X3341814D1*
X3351472Y4121643D1*
X3361243Y4131302D1*
X3366072Y4141072D1*
X3370901Y4155560D1*
Y4179931D1*
X3366072Y4194531D1*
X3361243Y4204189D1*
X3351472Y4213960D1*
X3341814Y4218789D1*
X3322384D1*
X3402274Y4199248D2*
X3412045Y4204189D1*
X3426645Y4218677D1*
Y4116702D1*
X3506647D2*
Y4218677D1*
X3458017Y4150731D1*
X3530905D1*
X3186510Y3075789D2*
X3225368Y2973702D1*
X3264227Y3075789D1*
X3324799D2*
X3315028Y3070960D1*
X3305370Y3061189D1*
X3300428Y3051531D1*
X3295599Y3036931D1*
Y3012560D1*
X3300428Y2998072D1*
X3305370Y2988302D1*
X3315028Y2978643D1*
X3324799Y2973702D1*
X3344228D1*
X3353887Y2978643D1*
X3363658Y2988302D1*
X3368487Y2998072D1*
X3373316Y3012560D1*
Y3036931D1*
X3368487Y3051531D1*
X3363658Y3061189D1*
X3353887Y3070960D1*
X3344228Y3075789D1*
X3324799D1*
X3404689Y3056248D2*
X3414459Y3061189D1*
X3429059Y3075677D1*
Y2973702D1*
X3518720Y3075677D2*
X3470203D1*
X3465373Y3031989D1*
X3470203Y3036819D1*
X3484803Y3041760D1*
X3499290D1*
X3513890Y3036819D1*
X3523661Y3027160D1*
X3528490Y3012560D1*
Y3002902D1*
X3523661Y2988302D1*
X3513890Y2978531D1*
X3499290Y2973702D1*
X3484803D1*
X3470203Y2978531D1*
X3465373Y2983472D1*
X3460432Y2993131D1*
X3188980Y1932789D2*
X3227839Y1830702D1*
X3266697Y1932789D1*
X3327270D2*
X3317499Y1927960D1*
X3307841Y1918189D1*
X3302899Y1908531D1*
X3298070Y1893931D1*
Y1869560D1*
X3302899Y1855072D1*
X3307841Y1845302D1*
X3317499Y1835643D1*
X3327270Y1830702D1*
X3346699D1*
X3356358Y1835643D1*
X3366128Y1845302D1*
X3370958Y1855072D1*
X3375787Y1869560D1*
Y1893931D1*
X3370958Y1908531D1*
X3366128Y1918189D1*
X3356358Y1927960D1*
X3346699Y1932789D1*
X3327270D1*
X3407159Y1913248D2*
X3416930Y1918189D1*
X3431530Y1932677D1*
Y1830702D1*
X3521190Y1918189D2*
X3516361Y1927848D1*
X3501761Y1932677D1*
X3492103D1*
X3477503Y1927848D1*
X3467732Y1913248D1*
X3462903Y1888989D1*
Y1864731D1*
X3467732Y1845302D1*
X3477503Y1835531D1*
X3492103Y1830702D1*
X3496932D1*
X3511420Y1835531D1*
X3521190Y1845302D1*
X3526020Y1859902D1*
Y1864731D1*
X3521190Y1879331D1*
X3511420Y1888989D1*
X3496932Y1893819D1*
X3492103D1*
X3477503Y1888989D1*
X3467732Y1879331D1*
X3462903Y1864731D1*
X603091Y18841751D2*
D34*
X428115D1*
X515491Y18929127D2*
Y18754152D1*
X515603Y18296378D2*
Y18184070D1*
X302273Y18589180D2*
X312157Y18569639D1*
X341132Y18540439D1*
X137181D1*
X603091Y17698751D2*
X428115D1*
X515491Y17786127D2*
Y17611152D1*
X515603Y17153378D2*
Y17041070D1*
X292615Y17436297D2*
X302273D1*
X321815Y17426639D1*
X331473Y17416980D1*
X341132Y17397439D1*
Y17358580D1*
X331473Y17339263D1*
X321815Y17329605D1*
X302273Y17319722D1*
X282956D1*
X263415Y17329605D1*
X234439Y17348922D1*
X137181Y17446180D1*
Y17310063D1*
X603091Y16555751D2*
X428115D1*
X515491Y16643127D2*
Y16468152D1*
X515603Y16010378D2*
Y15898070D1*
X341132Y16283639D2*
Y16176946D1*
X263415Y16235122D1*
Y16205922D1*
X253756Y16186605D1*
X244098Y16176946D1*
X214898Y16167063D1*
X195581D1*
X166381Y16176946D1*
X146839Y16196263D1*
X137181Y16225463D1*
Y16254663D1*
X146840Y16283639D1*
X156723Y16293297D1*
X176040Y16303180D1*
X603091Y15444501D2*
X428115D1*
X515491Y15531877D2*
Y15356902D1*
X515603Y14899128D2*
Y14786820D1*
X137181Y15094672D2*
X341132D1*
X205240Y15191930D1*
X205239Y15046155D1*
X603091Y14269751D2*
X428115D1*
X515491Y14357127D2*
Y14182152D1*
X515603Y13724378D2*
Y13612070D1*
X341132Y13900605D2*
Y13997639D1*
X253757Y14007297D1*
X263415Y13997639D1*
X273298Y13968439D1*
Y13939463D1*
X263415Y13910263D1*
X244098Y13890722D1*
X214898Y13881063D1*
X195581D1*
X166381Y13890722D1*
X146839Y13910263D1*
X137181Y13939463D1*
Y13968439D1*
X146840Y13997639D1*
X156723Y14007297D1*
X176040Y14017180D1*
X603091Y13158501D2*
X428115D1*
X515491Y13245877D2*
Y13070902D1*
X515603Y12613128D2*
Y12500820D1*
X312156Y12789355D2*
X331473Y12799013D1*
X341132Y12828213D1*
Y12847530D1*
X331473Y12876730D1*
X302273Y12896272D1*
X253757Y12905930D1*
X205240D1*
X166381Y12896272D1*
X146840Y12876730D1*
X137181Y12847530D1*
Y12837872D1*
X146839Y12808896D1*
X166381Y12789355D1*
X195581Y12779696D1*
X205239D1*
X234439Y12789355D1*
X253756Y12808896D1*
X263415Y12837872D1*
Y12847530D1*
X253756Y12876730D1*
X234440Y12896272D1*
X205240Y12905930D1*
X603091Y12015501D2*
X428115D1*
X515491Y12102877D2*
Y11927902D1*
X515603Y11470128D2*
Y11357820D1*
X137181Y11724072D2*
X341132Y11626813D1*
Y11762930D1*
X603091Y10840751D2*
X428115D1*
X515491Y10928127D2*
Y10753152D1*
X515603Y10295378D2*
Y10183070D1*
X341132Y10539663D2*
X331473Y10568639D1*
X312157Y10578522D1*
X292615D1*
X273298Y10568639D1*
X263415Y10549322D1*
X253756Y10510463D1*
X244098Y10481263D1*
X224556Y10461946D1*
X205239Y10452288D1*
X176039D1*
X156723Y10461946D1*
X146839Y10471605D1*
X137181Y10500805D1*
Y10539663D1*
X146840Y10568639D1*
X156723Y10578522D1*
X176040Y10588180D1*
X205240D1*
X224557Y10578522D1*
X244098Y10558980D1*
X253756Y10530005D1*
X263415Y10491146D1*
X273298Y10471605D1*
X292615Y10461946D1*
X312156D1*
X331473Y10471605D1*
X341132Y10500805D1*
Y10539663D1*
X603091Y9697751D2*
X428115D1*
X515491Y9785127D2*
Y9610152D1*
X515603Y9152378D2*
Y9040070D1*
X273298Y9318722D2*
X244098Y9328605D1*
X224556Y9347922D1*
X214898Y9377122D1*
Y9386780D1*
X224556Y9415980D1*
X244098Y9435297D1*
X273298Y9445180D1*
X282957D1*
X312157Y9435297D1*
X331473Y9415980D1*
X341132Y9386780D1*
Y9377122D1*
X331473Y9347922D1*
X312156Y9328605D1*
X273298Y9318722D1*
X224556D1*
X176039Y9328605D1*
X146839Y9347922D1*
X137181Y9377122D1*
Y9396439D1*
X146840Y9425639D1*
X166381Y9435297D1*
X603091Y8554751D2*
X428115D1*
X515491Y8642127D2*
Y8467152D1*
X515603Y8009378D2*
Y7897070D1*
X302273Y8365680D2*
X312157Y8346139D1*
X341132Y8316939D1*
X137181D1*
X341132Y8195794D2*
X331473Y8224993D1*
X302273Y8244535D1*
X253756Y8254194D1*
X224556D1*
X176039Y8244535D1*
X146839Y8224994D1*
X137181Y8195794D1*
Y8176477D1*
X146840Y8147277D1*
X176039Y8127960D1*
X224556Y8118077D1*
X253756D1*
X302273Y8127960D1*
X331473Y8147277D1*
X341132Y8176477D1*
Y8195794D1*
X302273Y8127960D2*
X176039Y8244535D1*
X603091Y7411751D2*
X428115D1*
X515491Y7499127D2*
Y7324152D1*
X515603Y6866378D2*
Y6754070D1*
X302273Y7222680D2*
X312157Y7203139D1*
X341132Y7173939D1*
X137181D1*
X302273Y7111193D2*
X312156Y7091652D1*
X341132Y7062452D1*
X137181D1*
X603091Y6300501D2*
X428115D1*
X515491Y6387877D2*
Y6212902D1*
X515603Y5755128D2*
Y5642820D1*
X302273Y6111430D2*
X312157Y6091889D1*
X341132Y6062689D1*
X137181D1*
X292615Y5990060D2*
X302273D1*
X321815Y5980402D1*
X331473Y5970743D1*
X341132Y5951202D1*
Y5912344D1*
X331473Y5893027D1*
X321815Y5883368D1*
X302273Y5873485D1*
X282956D1*
X263415Y5883368D1*
X234439Y5902685D1*
X137181Y5999944D1*
Y5863827D1*
X603091Y5125751D2*
X428115D1*
X515491Y5213127D2*
Y5038152D1*
X515603Y4580378D2*
Y4468070D1*
X302273Y4936680D2*
X312157Y4917139D1*
X341132Y4887939D1*
X137181D1*
X341132Y4805652D2*
Y4698960D1*
X263415Y4757135D1*
Y4727935D1*
X253756Y4708618D1*
X244098Y4698960D1*
X214898Y4689077D1*
X195581D1*
X166381Y4698960D1*
X146840Y4718277D1*
X137181Y4747477D1*
Y4776677D1*
X146839Y4805652D1*
X156723Y4815311D1*
X176039Y4825194D1*
X603091Y3982751D2*
X428115D1*
X515491Y4070127D2*
Y3895152D1*
X515603Y3437378D2*
Y3325070D1*
X302273Y3793680D2*
X312157Y3774139D1*
X341132Y3744939D1*
X137181D1*
Y3584935D2*
X341132D1*
X205239Y3682194D1*
Y3536418D1*
X603091Y2871501D2*
X428115D1*
X515491Y2958877D2*
Y2783902D1*
X515603Y2326128D2*
Y2213820D1*
X302273Y2682430D2*
X312157Y2662889D1*
X341132Y2633689D1*
X137181D1*
X341132Y2454368D2*
Y2551402D1*
X253756Y2561060D1*
X263415Y2551402D1*
X273298Y2522202D1*
Y2493227D1*
X263415Y2464027D1*
X244098Y2444485D1*
X214898Y2434827D1*
X195581D1*
X166381Y2444485D1*
X146840Y2464027D1*
X137181Y2493227D1*
Y2522202D1*
X146839Y2551402D1*
X156723Y2561061D1*
X176039Y2570944D1*
X603091Y1696751D2*
X428115D1*
X515491Y1784127D2*
Y1609152D1*
X515603Y1151378D2*
Y1039070D1*
X302273Y1507680D2*
X312157Y1488139D1*
X341132Y1458939D1*
X137181D1*
X312156Y1279618D2*
X331473Y1289277D1*
X341132Y1318477D1*
Y1337794D1*
X331473Y1366993D1*
X302273Y1386535D1*
X253756Y1396194D1*
X205239D1*
X166381Y1386535D1*
X146839Y1366994D1*
X137181Y1337794D1*
Y1328135D1*
X146840Y1299160D1*
X166381Y1279618D1*
X195581Y1269960D1*
X205239D1*
X234439Y1279618D1*
X253756Y1299160D1*
X263415Y1328135D1*
Y1337794D1*
X253756Y1366994D1*
X234439Y1386535D1*
X205239Y1396194D1*
X4867013Y1724303D2*
X4857130Y1743845D1*
X4828155Y1773045D1*
X5032106D1*
X4857130Y1952365D2*
X4837813Y1942707D1*
X4828155Y1913507D1*
Y1894190D1*
X4837813Y1864990D1*
X4867013Y1845448D1*
X4915530Y1835790D1*
X4964047D1*
X5002906Y1845448D1*
X5022447Y1864990D1*
X5032106Y1894190D1*
Y1903848D1*
X5022447Y1932823D1*
X5002906Y1952365D1*
X4973706Y1962024D1*
X4964047D1*
X4934847Y1952365D1*
X4915530Y1932824D1*
X4905872Y1903848D1*
Y1894190D1*
X4915530Y1864990D1*
X4934847Y1845448D1*
X4964047Y1835790D1*
X4876447Y2368058D2*
X4857130Y2358400D1*
X4837589Y2338858D1*
X4827930Y2319541D1*
Y2280683D1*
X4837589Y2261141D1*
X4857130Y2241824D1*
X4876447Y2231941D1*
X4905647Y2222283D1*
X4954389D1*
X4983364Y2231941D1*
X5002906Y2241824D1*
X5022222Y2261141D1*
X5032106Y2280683D1*
Y2319541D1*
X5022222Y2338858D1*
X5002906Y2358400D1*
X4983364Y2368058D1*
X4827930Y2430803D2*
X5032106D1*
X4934847D2*
X4905647Y2460003D1*
X4895989Y2479545D1*
Y2508745D1*
X4905647Y2528062D1*
X4934847Y2537720D1*
X5032106D1*
X4895989Y2717041D2*
X5032106D1*
X4925189D2*
X4905647Y2697724D1*
X4895989Y2678182D1*
Y2649207D1*
X4905647Y2629665D1*
X4925189Y2610348D1*
X4954389Y2600465D1*
X4973706D1*
X5002906Y2610348D1*
X5022222Y2629665D1*
X5032106Y2649207D1*
Y2678182D1*
X5022222Y2697724D1*
X5002906Y2717041D1*
X4895989Y2779786D2*
X5032106D1*
X4934847D2*
X4905647Y2808986D1*
X4895989Y2828527D1*
Y2857503D1*
X4905647Y2877044D1*
X4934847Y2886703D1*
X5032106D1*
X4895989Y2949448D2*
X5032106D1*
X4934847D2*
X4905647Y2978648D1*
X4895989Y2998189D1*
Y3027165D1*
X4905647Y3046706D1*
X4934847Y3056365D1*
X5032106D1*
X4954389Y3119110D2*
Y3235685D1*
X4934847D1*
X4915306Y3226027D1*
X4905647Y3216368D1*
X4895989Y3196827D1*
Y3167627D1*
X4905647Y3148310D1*
X4925189Y3128768D1*
X4954389Y3119110D1*
X4973706D1*
X5002906Y3128768D1*
X5022222Y3148310D1*
X5032106Y3167627D1*
Y3196827D1*
X5022222Y3216368D1*
X5002906Y3235685D1*
X4827930Y3298430D2*
X5032106D1*
X4827930Y3617090D2*
X4837589Y3597548D1*
X4857130Y3578231D1*
X4876447Y3568348D1*
X4905647Y3558690D1*
X4954389D1*
X4983364Y3568348D1*
X5002906Y3578231D1*
X5022222Y3597548D1*
X5032106Y3617090D1*
Y3655948D1*
X5022222Y3675265D1*
X5002906Y3694807D1*
X4983364Y3704465D1*
X4954389Y3714124D1*
X4905647D1*
X4876447Y3704465D1*
X4857130Y3694807D1*
X4837589Y3675265D1*
X4827930Y3655948D1*
Y3617090D1*
X4895989Y3776869D2*
X5100164D1*
X4925189D2*
X4905872Y3796410D1*
X4895989Y3815727D1*
Y3844927D1*
X4905872Y3864469D1*
X4925189Y3883786D1*
X4954389Y3893669D1*
X4973930D1*
X5002906Y3883786D1*
X5022447Y3864469D1*
X5032106Y3844927D1*
Y3815727D1*
X5022447Y3796410D1*
X5002906Y3776869D1*
X4827930Y3985614D2*
X4993247D1*
X5022222Y3995272D1*
X5032106Y4014814D1*
Y4034131D1*
X4895989Y3956414D2*
Y4024472D1*
Y4145393D2*
X4905647Y4126076D1*
X4925189Y4106534D1*
X4954389Y4096876D1*
X4973706D1*
X5002906Y4106534D1*
X5022222Y4126076D1*
X5032106Y4145393D1*
Y4174593D1*
X5022222Y4194134D1*
X5002906Y4213451D1*
X4973706Y4223334D1*
X4954389D1*
X4925189Y4213451D1*
X4905647Y4194134D1*
X4895989Y4174593D1*
Y4145393D1*
X4930130Y4286079D2*
Y4398387D1*
X4827930Y4461132D2*
X5032106D1*
X4925189Y4630794D2*
X4905647Y4621136D1*
X4895989Y4591936D1*
Y4562736D1*
X4905647Y4533536D1*
X4925189Y4523877D1*
X4944506Y4533536D1*
X4954389Y4553077D1*
X4964047Y4601594D1*
X4973706Y4621136D1*
X4993247Y4630794D1*
X5002906D1*
X5022222Y4621136D1*
X5032106Y4591936D1*
Y4562736D1*
X5022222Y4533536D1*
X5002906Y4523877D1*
X4895989Y4742056D2*
X4905647Y4722739D1*
X4925189Y4703198D1*
X4954389Y4693539D1*
X4973706D1*
X5002906Y4703198D1*
X5022222Y4722739D1*
X5032106Y4742056D1*
Y4771256D1*
X5022222Y4790798D1*
X5002906Y4810115D1*
X4973706Y4819998D1*
X4954389D1*
X4925189Y4810115D1*
X4905647Y4790798D1*
X4895989Y4771256D1*
Y4742056D1*
X4827930Y4882743D2*
X5032106D1*
X4895989Y5062063D2*
X5032106D1*
X4925189D2*
X4905647Y5042746D1*
X4895989Y5023205D1*
Y4994230D1*
X4905647Y4974688D1*
X4925189Y4955371D1*
X4954389Y4945488D1*
X4973706D1*
X5002906Y4955371D1*
X5022222Y4974688D1*
X5032106Y4994230D1*
Y5023205D1*
X5022222Y5042746D1*
X5002906Y5062063D1*
X4827930Y5154008D2*
X4993247D1*
X5022222Y5163667D1*
X5032106Y5183208D1*
Y5202525D1*
X4895989Y5124808D2*
Y5192867D1*
Y5313787D2*
X4905647Y5294470D1*
X4925189Y5274929D1*
X4954389Y5265270D1*
X4973706D1*
X5002906Y5274929D1*
X5022222Y5294470D1*
X5032106Y5313787D1*
Y5342987D1*
X5022222Y5362529D1*
X5002906Y5381846D1*
X4973706Y5391729D1*
X4954389D1*
X4925189Y5381846D1*
X4905647Y5362529D1*
X4895989Y5342987D1*
Y5313787D1*
Y5454474D2*
X5032106D1*
X4954389D2*
X4925189Y5464357D1*
X4905647Y5483674D1*
X4895989Y5503216D1*
Y5532416D1*
X4827930Y5792675D2*
X5032106D1*
X4895989Y5855420D2*
X5032106D1*
X4934847D2*
X4905647Y5884620D1*
X4895989Y5904162D1*
Y5933137D1*
X4905647Y5952679D1*
X4934847Y5962337D1*
X5032106D1*
X4895989Y6025082D2*
X5100164D1*
X4925189D2*
X4905872Y6044624D1*
X4895989Y6063941D1*
Y6093141D1*
X4905872Y6112682D1*
X4925189Y6131999D1*
X4954389Y6141882D1*
X4973930D1*
X5002906Y6131999D1*
X5022447Y6112682D1*
X5032106Y6093141D1*
Y6063941D1*
X5022447Y6044624D1*
X5002906Y6025082D1*
X4895989Y6204627D2*
X4993247D1*
X5022222Y6214286D1*
X5032106Y6233827D1*
Y6263027D1*
X5022222Y6282344D1*
X4993247Y6311544D1*
X4895989D2*
X5032106D1*
X4827930Y6403489D2*
X4993247D1*
X5022222Y6413148D1*
X5032106Y6432689D1*
Y6452006D1*
X4895989Y6374289D2*
Y6442348D1*
X4827930Y6712266D2*
X5032106D1*
Y6799866D1*
X5022222Y6829066D1*
X5012564Y6838724D1*
X4993247Y6848383D1*
X4964047D1*
X4944506Y6838724D1*
X4934847Y6829066D1*
X4925189Y6799866D1*
X4915306Y6829066D1*
X4905647Y6838724D1*
X4886330Y6848383D1*
X4866789D1*
X4847472Y6838724D1*
X4837589Y6829066D1*
X4827930Y6799866D1*
Y6712266D1*
X4925189D2*
Y6799866D1*
X4895989Y6959645D2*
X4905647Y6940328D1*
X4925189Y6920786D1*
X4954389Y6911128D1*
X4973706D1*
X5002906Y6920786D1*
X5022222Y6940328D1*
X5032106Y6959645D1*
Y6988845D1*
X5022222Y7008386D1*
X5002906Y7027703D1*
X4973706Y7037586D1*
X4954389D1*
X4925189Y7027703D1*
X4905647Y7008386D1*
X4895989Y6988845D1*
Y6959645D1*
Y7216907D2*
X5032106D1*
X4925189D2*
X4905647Y7197590D1*
X4895989Y7178048D1*
Y7149073D1*
X4905647Y7129531D1*
X4925189Y7110214D1*
X4954389Y7100331D1*
X4973706D1*
X5002906Y7110214D1*
X5022222Y7129531D1*
X5032106Y7149073D1*
Y7178048D1*
X5022222Y7197590D1*
X5002906Y7216907D1*
X4895989Y7279652D2*
X5032106D1*
X4954389D2*
X4925189Y7289535D1*
X4905647Y7308852D1*
X4895989Y7328393D1*
Y7357593D1*
X4827930Y7536914D2*
X5032106D1*
X4925189D2*
X4905647Y7517597D1*
X4895989Y7498055D1*
Y7468855D1*
X4905647Y7449538D1*
X4925189Y7429997D1*
X4954389Y7420338D1*
X4973706D1*
X5002906Y7429997D1*
X5022222Y7449538D1*
X5032106Y7468855D1*
Y7498055D1*
X5022222Y7517597D1*
X5002906Y7536914D1*
X5224987Y2620095D2*
D35*
X5378118D1*
Y2671139D1*
X5370706Y2693039D1*
X5356218Y2707695D1*
X5341562Y2714939D1*
X5319831Y2722183D1*
X5283275D1*
X5261375Y2714939D1*
X5246887Y2707695D1*
X5232231Y2693039D1*
X5224987Y2671139D1*
Y2620095D1*
X5319831Y2769241D2*
Y2856673D1*
X5305175D1*
X5290518Y2849429D1*
X5283275Y2842185D1*
X5276031Y2827529D1*
Y2805629D1*
X5283275Y2791141D1*
X5297931Y2776485D1*
X5319831Y2769241D1*
X5334318D1*
X5356218Y2776485D1*
X5370706Y2791141D1*
X5378118Y2805629D1*
Y2827529D1*
X5370706Y2842185D1*
X5356218Y2856673D1*
X5297931Y2983919D2*
X5283275Y2976675D1*
X5276031Y2954775D1*
Y2932875D1*
X5283275Y2910976D1*
X5297931Y2903732D1*
X5312418Y2910975D1*
X5319831Y2925632D1*
X5327075Y2962019D1*
X5334318Y2976675D1*
X5348975Y2983919D1*
X5356218D1*
X5370706Y2976675D1*
X5378118Y2954775D1*
Y2932875D1*
X5370706Y2910975D1*
X5356218Y2903732D1*
X5224987Y3030978D2*
X5232231Y3038222D1*
X5224987Y3045634D1*
X5217575Y3038222D1*
X5224987Y3030978D1*
X5276031Y3038222D2*
X5378118D1*
X5283275Y3180125D2*
X5400018D1*
X5421750Y3172881D1*
X5429162Y3165637D1*
X5436406Y3150981D1*
Y3129081D1*
X5429162Y3114593D1*
X5305175Y3180125D2*
X5290687Y3165637D1*
X5283275Y3150981D1*
Y3129081D1*
X5290687Y3114593D1*
X5305175Y3099937D1*
X5327075Y3092693D1*
X5341731D1*
X5363462Y3099937D1*
X5378118Y3114593D1*
X5385362Y3129081D1*
Y3150981D1*
X5378118Y3165637D1*
X5363462Y3180125D1*
X5276031Y3227183D2*
X5378118D1*
X5305175D2*
X5283275Y3249083D1*
X5276031Y3263740D1*
Y3285471D1*
X5283275Y3300127D1*
X5305175Y3307371D1*
X5378118D1*
X5319831Y3354430D2*
Y3441861D1*
X5305175Y3441862D1*
X5290518Y3434618D1*
X5283275Y3427374D1*
X5276031Y3412718D1*
Y3390818D1*
X5283275Y3376330D1*
X5297931Y3361674D1*
X5319831Y3354430D1*
X5334318D1*
X5356218Y3361674D1*
X5370706Y3376330D1*
X5378118Y3390818D1*
Y3412718D1*
X5370706Y3427374D1*
X5356218Y3441861D1*
X5224987Y3576352D2*
X5378118D1*
X5297931D2*
X5283275Y3561864D1*
X5276031Y3547208D1*
Y3525308D1*
X5283275Y3510820D1*
X5297931Y3496164D1*
X5319831Y3488920D1*
X5334318D1*
X5356218Y3496164D1*
X5370706Y3510820D1*
X5378118Y3525308D1*
Y3547208D1*
X5370706Y3561864D1*
X5356218Y3576352D1*
X5224987Y3829834D2*
Y3815346D1*
X5232231Y3800690D1*
X5254131Y3793446D1*
X5378118D1*
X5276031Y3771546D2*
Y3822590D1*
Y3913281D2*
X5283274Y3898793D1*
X5297931Y3884137D1*
X5319831Y3876893D1*
X5334318D1*
X5356218Y3884137D1*
X5370706Y3898793D1*
X5378118Y3913281D1*
Y3935181D1*
X5370706Y3949837D1*
X5356218Y3964324D1*
X5334318Y3971737D1*
X5319831D1*
X5297931Y3964324D1*
X5283274Y3949837D1*
X5276031Y3935181D1*
Y3913281D1*
Y4018796D2*
X5378118D1*
X5319831D2*
X5297931Y4026208D1*
X5283274Y4040696D1*
X5276031Y4055352D1*
Y4077252D1*
X5224987Y4294346D2*
X5348974D1*
X5370706Y4301590D1*
X5378118Y4316246D1*
Y4330734D1*
X5276031Y4272446D2*
Y4323490D1*
X5224987Y4377793D2*
X5378118D1*
X5305174D2*
X5283274Y4399693D1*
X5276031Y4414349D1*
Y4436249D1*
X5283274Y4450737D1*
X5305174Y4457981D1*
X5378118D1*
X5319831Y4505039D2*
Y4592471D1*
X5305174D1*
X5290518Y4585227D1*
X5283274Y4577983D1*
X5276031Y4563327D1*
Y4541427D1*
X5283274Y4526939D1*
X5297931Y4512283D1*
X5319831Y4505039D1*
X5334318D1*
X5356218Y4512283D1*
X5370706Y4526939D1*
X5378118Y4541427D1*
Y4563327D1*
X5370706Y4577983D1*
X5356218Y4592471D1*
X5224987Y4787665D2*
X5378118D1*
X5224987Y4878524D2*
X5232231Y4863868D1*
X5246887Y4849380D1*
X5261374Y4841968D1*
X5283274Y4834724D1*
X5319831D1*
X5341562Y4841968D1*
X5356218Y4849380D1*
X5370706Y4863868D1*
X5378118Y4878524D1*
Y4907668D1*
X5370706Y4922156D1*
X5356218Y4936812D1*
X5341562Y4944056D1*
X5319831Y4951300D1*
X5283274D1*
X5261374Y4944056D1*
X5246887Y4936812D1*
X5232231Y4922156D1*
X5224987Y4907668D1*
Y4878524D1*
X5305174Y5146494D2*
Y5212194D1*
X5297931Y5233926D1*
X5290518Y5241338D1*
X5276031Y5248582D1*
X5254131D1*
X5239643Y5241338D1*
X5232231Y5233926D1*
X5224987Y5212194D1*
Y5146494D1*
X5378118D1*
X5224987Y5295641D2*
X5232231Y5302885D1*
X5224987Y5310297D1*
X5217574Y5302885D1*
X5224987Y5295641D1*
X5276031Y5302885D2*
X5378118D1*
X5305174Y5505491D2*
Y5571191D1*
X5297931Y5592923D1*
X5290518Y5600335D1*
X5276031Y5607579D1*
X5254131D1*
X5239643Y5600335D1*
X5232231Y5592923D1*
X5224987Y5571191D1*
Y5505491D1*
X5378118D1*
X5224987Y5654638D2*
X5378118D1*
X5276031Y5701697D2*
X5348974D1*
X5370706Y5708941D1*
X5378118Y5723597D1*
Y5745497D1*
X5370706Y5759985D1*
X5348974Y5781885D1*
X5276031D2*
X5378118D1*
X5297931Y5909131D2*
X5283274Y5901887D1*
X5276031Y5879987D1*
Y5858087D1*
X5283274Y5836187D1*
X5297931Y5828943D1*
X5312418Y5836187D1*
X5319831Y5850843D1*
X5327074Y5887231D1*
X5334318Y5901887D1*
X5348974Y5909131D1*
X5356218D1*
X5370706Y5901887D1*
X5378118Y5879987D1*
Y5858087D1*
X5370706Y5836187D1*
X5356218Y5828943D1*
X5261543Y6111738D2*
X5254299D1*
X5239643Y6118982D1*
X5232399Y6126226D1*
X5225155Y6140882D1*
Y6170026D1*
X5232399Y6184513D1*
X5239643Y6191757D1*
X5254299Y6199169D1*
X5268787D1*
X5283443Y6191757D1*
X5305174Y6177269D1*
X5378118Y6104326D1*
Y6206413D1*
X5363462Y6260716D2*
X5370874Y6253472D1*
X5378118Y6260716D1*
X5370874Y6268128D1*
X5363462Y6260716D1*
X5254299Y6315187D2*
X5246887Y6329843D1*
X5225155Y6351743D1*
X5378118D1*
X5577384Y3207742D2*
X5679472Y3236885D1*
X5577384Y3266029D1*
X5679472Y3295173D1*
X5577384Y3324317D1*
Y3371376D2*
X5679472Y3400519D1*
X5577384Y3429663D1*
X5679472Y3458807D1*
X5577384Y3487951D1*
Y3535010D2*
X5679472Y3564154D1*
X5577384Y3593298D1*
X5679472Y3622441D1*
X5577384Y3651585D1*
X5664816Y3705888D2*
X5672228Y3698644D1*
X5679472Y3705888D1*
X5672228Y3713300D1*
X5664816Y3705888D1*
X5577384Y3847791D2*
X5679472D1*
X5599284D2*
X5584628Y3833303D1*
X5577384Y3818647D1*
Y3796915D1*
X5584628Y3782259D1*
X5599284Y3767771D1*
X5621184Y3760359D1*
X5635672D1*
X5657572Y3767771D1*
X5672059Y3782259D1*
X5679472Y3796915D1*
Y3818647D1*
X5672059Y3833303D1*
X5657572Y3847791D1*
X5526340Y3894849D2*
X5679472D1*
X5599284D2*
X5584628Y3909506D1*
X5577384Y3923993D1*
Y3945893D1*
X5584628Y3960381D1*
X5599284Y3975037D1*
X5621184Y3982281D1*
X5635672D1*
X5657572Y3975037D1*
X5672059Y3960381D1*
X5679472Y3945893D1*
Y3923993D1*
X5672059Y3909505D1*
X5657572Y3894849D1*
X5621184Y4029340D2*
Y4116771D1*
X5606528D1*
X5591872Y4109527D1*
X5584628Y4102284D1*
X5577384Y4087627D1*
Y4065727D1*
X5584628Y4051240D1*
X5599284Y4036584D1*
X5621184Y4029340D1*
X5635672D1*
X5657572Y4036584D1*
X5672059Y4051240D1*
X5679472Y4065727D1*
Y4087627D1*
X5672059Y4102284D1*
X5657572Y4116771D1*
X5526340Y4163830D2*
X5679472D1*
X5621184Y4210889D2*
Y4298320D1*
X5606528D1*
X5591872Y4291077D1*
X5584628Y4283833D1*
X5577384Y4269177D1*
Y4247277D1*
X5584628Y4232789D1*
X5599284Y4218133D1*
X5621184Y4210889D1*
X5635672D1*
X5657572Y4218133D1*
X5672059Y4232789D1*
X5679472Y4247277D1*
Y4269177D1*
X5672059Y4283833D1*
X5657572Y4298320D1*
X5599284Y4432979D2*
X5584628Y4418323D1*
X5577384Y4403667D1*
Y4381935D1*
X5584628Y4367279D1*
X5599284Y4352792D1*
X5621184Y4345379D1*
X5635672D1*
X5657572Y4352792D1*
X5672059Y4367279D1*
X5679472Y4381935D1*
Y4403667D1*
X5672059Y4418323D1*
X5657572Y4432979D1*
X5526340Y4501938D2*
X5650328D1*
X5672059Y4509182D1*
X5679472Y4523838D1*
Y4538326D1*
X5577384Y4480038D2*
Y4531082D1*
Y4585385D2*
X5679472D1*
X5621184D2*
X5599284Y4592797D1*
X5584628Y4607285D1*
X5577384Y4621941D1*
Y4643841D1*
Y4727287D2*
X5584628Y4712800D1*
X5599284Y4698143D1*
X5621184Y4690900D1*
X5635672D1*
X5657572Y4698143D1*
X5672059Y4712800D1*
X5679472Y4727287D1*
Y4749187D1*
X5672059Y4763843D1*
X5657572Y4778331D1*
X5635672Y4785743D1*
X5621184D1*
X5599284Y4778331D1*
X5584628Y4763843D1*
X5577384Y4749187D1*
Y4727287D1*
Y4832802D2*
X5679472D1*
X5606528D2*
X5584628Y4854702D1*
X5577384Y4869358D1*
Y4891090D1*
X5584628Y4905746D1*
X5606528Y4912990D1*
X5679472D1*
X5526340Y4960049D2*
X5533584Y4967293D1*
X5526340Y4974705D1*
X5518928Y4967293D1*
X5526340Y4960049D1*
X5577384Y4967293D2*
X5679472D1*
X5599284Y5109364D2*
X5584628Y5094708D1*
X5577384Y5080051D1*
Y5058320D1*
X5584628Y5043664D1*
X5599284Y5029176D1*
X5621184Y5021764D1*
X5635672D1*
X5657572Y5029176D1*
X5672059Y5043664D1*
X5679472Y5058320D1*
Y5080051D1*
X5672059Y5094708D1*
X5657572Y5109364D1*
X5599284Y5236610D2*
X5584628Y5229366D1*
X5577384Y5207466D1*
Y5185566D1*
X5584628Y5163666D1*
X5599284Y5156423D1*
X5613772Y5163666D1*
X5621184Y5178323D1*
X5628428Y5214710D1*
X5635672Y5229366D1*
X5650328Y5236610D1*
X5657572D1*
X5672059Y5229366D1*
X5679472Y5207466D1*
Y5185566D1*
X5672059Y5163666D1*
X5657572Y5156423D1*
X5664815Y5290913D2*
X5672228Y5283669D1*
X5679472Y5290913D1*
X5672228Y5298325D1*
X5664815Y5290913D1*
X5599284Y5432984D2*
X5584628Y5418328D1*
X5577384Y5403672D1*
Y5381940D1*
X5584628Y5367284D1*
X5599284Y5352796D1*
X5621184Y5345384D1*
X5635672D1*
X5657572Y5352796D1*
X5672059Y5367284D1*
X5679472Y5381940D1*
Y5403672D1*
X5672059Y5418328D1*
X5657572Y5432984D1*
X5577384Y5516431D2*
X5584628Y5501943D1*
X5599284Y5487287D1*
X5621184Y5480043D1*
X5635672D1*
X5657572Y5487287D1*
X5672059Y5501943D1*
X5679472Y5516431D1*
Y5538331D1*
X5672059Y5552987D1*
X5657572Y5567474D1*
X5635672Y5574887D1*
X5621184D1*
X5599284Y5567474D1*
X5584628Y5552987D1*
X5577384Y5538331D1*
Y5516431D1*
X5664815Y5629189D2*
X5672228Y5621946D1*
X5679472Y5629189D1*
X5672228Y5636602D1*
X5664815Y5629189D1*
X5577384Y5683661D2*
X5650328D1*
X5672059Y5690904D1*
X5679472Y5705561D1*
Y5727461D1*
X5672059Y5741948D1*
X5650328Y5763848D1*
X5577384D2*
X5679472D1*
X5526340Y5810907D2*
X5679472D1*
X5577384Y5883851D2*
X5650328Y5810907D1*
X5621184Y5840051D2*
X5679472Y5891095D1*
X5756227Y11435919D2*
D36*
X5768300Y11441955D1*
X5780513Y11454169D1*
X5786550Y11466242D1*
Y11490528D1*
X5780513Y11502742D1*
X5768300Y11514815D1*
X5756227Y11520992D1*
X5737977Y11527028D1*
X5707513D1*
X5689404Y11520992D1*
X5677190Y11514815D1*
X5665117Y11502742D1*
X5658940Y11490528D1*
Y11466242D1*
X5665117Y11454169D1*
X5677190Y11441955D1*
X5689404Y11435919D1*
X5707513D1*
Y11466242D1*
X5786550Y11311630D2*
X5658940D1*
X5786550Y11396703D1*
X5658940D1*
X5786550Y11272414D2*
X5658940D1*
Y11229878D1*
X5665117Y11211628D1*
X5677190Y11199414D1*
X5689404Y11193378D1*
X5707513Y11187341D1*
X5737977D1*
X5756227Y11193378D1*
X5768300Y11199414D1*
X5780513Y11211628D1*
X5786550Y11229878D1*
Y11272414D1*
X4545150Y11023230D2*
X4557364Y11029407D1*
X4575614Y11047517D1*
Y10920048D1*
X5678537Y11017194D2*
Y11023230D1*
X5684574Y11035444D1*
X5690610Y11041480D1*
X5702824Y11047517D1*
X5727110D1*
X5739183Y11041480D1*
X5745220Y11035444D1*
X5751397Y11023230D1*
Y11011157D1*
X5745220Y10998944D1*
X5733147Y10980834D1*
X5672360Y10920048D1*
X5757433D1*
X4541395Y10793263D2*
X4608078D1*
X4571718Y10744690D1*
X4589968D1*
X4602041Y10738653D1*
X4608078Y10732617D1*
X4614255Y10714367D1*
Y10702294D1*
X4608078Y10684044D1*
X4596005Y10671830D1*
X4577755Y10665794D1*
X4559505D1*
X4541395Y10671830D1*
X4535358Y10678007D1*
X4529181Y10690080D1*
X5733147Y10665794D2*
Y10793263D1*
X5672360Y10708330D1*
X5763470D1*
X4602041Y10539339D2*
X4541395D1*
X4535358Y10484729D1*
X4541395Y10490766D1*
X4559645Y10496943D1*
X4577755D1*
X4596005Y10490766D1*
X4608218Y10478693D1*
X4614255Y10460443D1*
Y10448370D1*
X4608218Y10430120D1*
X4596005Y10417906D1*
X4577755Y10411870D1*
X4559645D1*
X4541395Y10417906D1*
X4535358Y10424083D1*
X4529181Y10436156D1*
X5745220Y10521229D2*
X5739183Y10533302D1*
X5720933Y10539339D1*
X5708860D1*
X5690610Y10533302D1*
X5678397Y10515052D1*
X5672360Y10484729D1*
Y10454406D1*
X5678397Y10430120D1*
X5690610Y10417906D1*
X5708860Y10411870D1*
X5714897D1*
X5733006Y10417906D1*
X5745220Y10430120D1*
X5751256Y10448370D1*
Y10454406D1*
X5745220Y10472656D1*
X5733006Y10484729D1*
X5714897Y10490766D1*
X5708860D1*
X5690610Y10484729D1*
X5678397Y10472656D1*
X5672360Y10454406D1*
X4553468Y10157946D2*
X4614255Y10285415D1*
X4529181D1*
X5702683D2*
X5684574Y10279379D1*
X5678397Y10267306D1*
Y10255092D1*
X5684574Y10243019D1*
X5696647Y10236842D1*
X5720933Y10230806D1*
X5739183Y10224769D1*
X5751256Y10212556D1*
X5757293Y10200482D1*
Y10182232D1*
X5751256Y10170159D1*
X5745220Y10163982D1*
X5726970Y10157946D1*
X5702683D1*
X5684574Y10163982D1*
X5678397Y10170159D1*
X5672360Y10182232D1*
Y10200482D1*
X5678397Y10212556D1*
X5690610Y10224769D1*
X5708720Y10230806D1*
X5733006Y10236842D1*
X5745220Y10243019D1*
X5751256Y10255092D1*
Y10267306D1*
X5745220Y10279379D1*
X5726970Y10285415D1*
X5702683D1*
X4608218Y9989095D2*
X4602041Y9970845D1*
X4589968Y9958632D1*
X4571718Y9952595D1*
X4565681D1*
X4547431Y9958632D1*
X4535358Y9970845D1*
X4529181Y9989095D1*
Y9995132D1*
X4535358Y10013382D1*
X4547431Y10025455D1*
X4565681Y10031491D1*
X4571718D1*
X4589968Y10025455D1*
X4602041Y10013382D1*
X4608218Y9989095D1*
Y9958632D1*
X4602041Y9928309D1*
X4589968Y9910059D1*
X4571718Y9904022D1*
X4559645D1*
X4541395Y9910059D1*
X4535358Y9922272D1*
X5640423Y10007205D2*
X5652636Y10013382D1*
X5670886Y10031491D1*
Y9904022D1*
X5746602Y10031491D2*
X5728352Y10025455D1*
X5716138Y10007205D1*
X5710102Y9976882D1*
Y9958632D1*
X5716138Y9928309D1*
X5728352Y9910059D1*
X5746602Y9904022D1*
X5758675D1*
X5776925Y9910059D1*
X5788998Y9928309D1*
X5795175Y9958632D1*
Y9976882D1*
X5788998Y10007205D1*
X5776925Y10025455D1*
X5758675Y10031491D1*
X5746602D1*
X5788998Y10007205D2*
X5716138Y9928309D1*
X4497512Y9753281D2*
X4509726Y9759458D1*
X4527976Y9777568D1*
Y9650098D1*
X4567191Y9753281D2*
X4579405Y9759458D1*
X4597655Y9777568D1*
Y9650098D1*
X5640423Y9753281D2*
X5652636Y9759458D1*
X5670886Y9777568D1*
Y9650098D1*
X5716279Y9747244D2*
Y9753281D1*
X5722315Y9765494D1*
X5728352Y9771531D1*
X5740565Y9777568D1*
X5764852D1*
X5776925Y9771531D1*
X5782961Y9765494D1*
X5789138Y9753281D1*
Y9741208D1*
X5782961Y9728994D1*
X5770888Y9710885D1*
X5710102Y9650098D1*
X5795175D1*
X4497512Y9499027D2*
X4509726Y9505204D1*
X4527976Y9523314D1*
Y9395844D1*
X4579405Y9523314D2*
X4646088D1*
X4609728Y9474740D1*
X4627978D1*
X4640051Y9468704D1*
X4646088Y9462667D1*
X4652264Y9444417D1*
Y9432344D1*
X4646088Y9414094D1*
X4634014Y9401881D1*
X4615764Y9395844D1*
X4597514D1*
X4579405Y9401881D1*
X4573368Y9408058D1*
X4567191Y9420131D1*
X5640423Y9499027D2*
X5652636Y9505204D1*
X5670886Y9523314D1*
Y9395844D1*
X5770888D2*
Y9523314D1*
X5710102Y9438381D1*
X5801211D1*
X4497512Y9245103D2*
X4509726Y9251280D1*
X4527976Y9269390D1*
Y9141921D1*
X4640051Y9269390D2*
X4579405D1*
X4573368Y9214780D1*
X4579405Y9220817D1*
X4597655Y9226994D1*
X4615764D1*
X4634014Y9220817D1*
X4646228Y9208744D1*
X4652264Y9190494D1*
Y9178421D1*
X4646228Y9160171D1*
X4634014Y9147957D1*
X4615764Y9141921D1*
X4597655D1*
X4579405Y9147957D1*
X4573368Y9154134D1*
X4567191Y9166207D1*
X5640423Y9245103D2*
X5652636Y9251280D1*
X5670886Y9269390D1*
Y9141921D1*
X5782961Y9251280D2*
X5776925Y9263353D1*
X5758675Y9269390D1*
X5746602D1*
X5728352Y9263353D1*
X5716138Y9245103D1*
X5710102Y9214780D1*
Y9184457D1*
X5716138Y9160171D1*
X5728352Y9147957D1*
X5746602Y9141921D1*
X5752638D1*
X5770748Y9147957D1*
X5782961Y9160171D1*
X5788998Y9178421D1*
Y9184457D1*
X5782961Y9202707D1*
X5770748Y9214780D1*
X5752638Y9220817D1*
X5746602D1*
X5728352Y9214780D1*
X5716138Y9202707D1*
X5710102Y9184457D1*
M02*
